<svg width="59" height="59" viewBox="0 0 59 59" fill="none" xmlns="http://www.w3.org/2000/svg">
<rect width="58.4012" height="58.4012" rx="29.2006" fill="white"/>
<path d="M24.0139 11.5603H13.5989C11.5233 11.5603 9.81835 13.2653 9.81835 15.3779C9.74422 17.4164 11.375 19.1214 13.4136 19.1955H24.1251L24.0139 11.5603V11.5603Z" fill="#073042"/>
<path d="M47.6238 45.5113H13.5989C11.4862 45.5113 9.81833 43.8063 9.81833 41.6937V15.3411C9.81833 17.4537 11.5233 19.1587 13.5989 19.1957H42.1012C42.1012 19.1957 47.6608 18.7139 47.6608 22.9022V45.5113H47.6238Z" fill="#4285F4"/>
<path d="M31.7603 32.0196C33.2799 30.8706 33.5764 28.7209 32.4274 27.2384C31.7973 26.4229 30.8337 25.904 29.7959 25.867H29.9071C30.0924 25.8299 30.3148 25.8299 30.5001 25.867V23.7543C30.5001 23.4949 30.3889 23.2725 30.1665 23.1613C29.8329 22.976 29.4252 23.0872 29.2399 23.4207C29.1658 23.5319 29.1287 23.6431 29.1658 23.7914V25.9411C27.3126 26.2376 26.0153 27.9796 26.3118 29.8699V29.907C26.4601 30.7965 26.9419 31.6119 27.6832 32.1308L21.4194 45.5481H25.4964L28.3874 39.3954C28.721 38.6541 29.6106 38.3205 30.3889 38.6912C30.6854 38.8394 30.9449 39.0989 31.0931 39.3954L34.0953 45.5481H38.2465L31.7603 32.0196ZM29.6476 31.4266C28.4616 31.4266 27.535 30.4629 27.535 29.2769C27.535 28.0908 28.4986 27.1642 29.6847 27.2013C30.2406 27.2013 30.7225 27.4237 31.1302 27.7943C31.9827 28.6097 31.9827 29.944 31.1672 30.7965C30.7966 31.1672 30.2406 31.4266 29.6476 31.4266Z" fill="#3870B2"/>
<path d="M21.753 13.4136H36.3563V16.0822H21.753V13.4136Z" fill="white"/>
<path d="M28.5357 27.1644C29.6847 27.1644 30.6484 28.1281 30.6113 29.3141C30.6113 30.4631 29.6477 31.4268 28.4616 31.3897C27.3126 31.3897 26.386 30.4261 26.386 29.2771C26.386 28.7211 26.6084 28.2022 27.0161 27.7945C27.4238 27.3868 27.9798 27.1644 28.5357 27.1644V27.1644ZM29.3511 25.9413V23.7175C29.3511 23.458 29.24 23.2356 29.0176 23.1244C28.684 22.9391 28.2763 23.0503 28.091 23.3839C28.0168 23.4951 27.9798 23.6063 28.0168 23.7545V25.9042C26.1636 26.2008 24.8664 27.9428 25.1629 29.833V29.8701C25.3112 30.7596 25.793 31.5751 26.5343 32.094L18.6396 49.0323C18.3431 49.6253 18.3802 50.3666 18.7879 50.9226C19.3809 51.775 20.5299 51.9974 21.3824 51.4044C21.6789 51.2191 21.9013 50.9226 22.0495 50.626L27.3126 39.3585C27.6462 38.6173 28.5357 38.2837 29.3141 38.6543C29.6106 38.8026 29.87 39.062 30.0183 39.3585L35.3926 50.5149C35.8374 51.4415 36.9493 51.8121 37.8759 51.3673C38.8025 50.9226 39.1732 49.8106 38.7284 48.884L30.6113 32.0198C32.0939 30.8338 32.3533 28.647 31.1673 27.1644C30.7225 26.5714 30.0924 26.1637 29.3511 25.9413" fill="#073042"/>
<path d="M34.2066 15.7856C33.6506 15.7856 33.2058 15.3779 33.2058 14.8219C33.2058 14.5625 33.317 14.266 33.5024 14.0806C33.9101 13.71 34.5031 13.71 34.9108 14.0806C35.0961 14.266 35.2073 14.5254 35.2073 14.7849C35.1702 15.3408 34.7625 15.7485 34.2066 15.7856M23.2356 15.7485C22.6796 15.7485 22.2349 15.3038 22.2349 14.7849C22.2349 14.5254 22.346 14.266 22.5314 14.0806C22.8649 13.6729 23.495 13.5988 23.9027 13.9324H23.9398C24.3475 14.303 24.3846 14.9331 24.0139 15.3408L23.9027 15.4891C23.7174 15.6744 23.458 15.7856 23.1985 15.7856M34.5031 9.7812L36.4675 6.3713C36.5787 6.18598 36.5046 5.9636 36.3563 5.81534C36.171 5.74121 35.9857 5.77828 35.8745 5.92653L33.8359 9.44763C30.5743 8.00212 26.8679 8.00212 23.6433 9.44763L21.6418 5.9636C21.5677 5.8524 21.4194 5.74121 21.2712 5.74121C21.1229 5.74121 20.9747 5.81534 20.9005 5.9636C20.8264 6.07479 20.8264 6.26011 20.9005 6.3713L22.902 9.7812C19.418 11.6715 17.1571 15.2296 16.8235 19.1584H40.6187C40.3222 15.1926 38.0242 11.6715 34.5402 9.7812" fill="#3DDC84"/>
<path d="M44.1398 26.5344H42.5831C42.5089 26.5714 42.4348 26.6456 42.4348 26.7568V51.4044C42.4348 51.5156 42.5089 51.5897 42.6201 51.5897H44.251C46.1412 51.5897 47.6609 50.033 47.6609 48.1798V23.0874C47.6609 24.9777 46.1412 26.4973 44.251 26.4973H44.1398V26.5344Z" fill="#073042"/>
</svg>
