<svg width="59" height="59" viewBox="0 0 59 59" fill="none" xmlns="http://www.w3.org/2000/svg">
<rect width="58.4012" height="58.4012" rx="29.2006" fill="white"/>
<path d="M12.2028 16.6218C12.1205 14.2556 13.9638 12.0737 16.4557 12.0737H41.9891C44.481 12.0737 46.3243 14.2556 46.242 16.6218C46.1629 18.8946 46.2656 21.8388 47.0066 24.2394C47.7499 26.6476 49.0033 28.1694 51.0563 28.3652V30.5828C49.0033 30.7787 47.7499 32.3005 47.0066 34.7087C46.2656 37.1092 46.1629 40.0535 46.242 42.3263C46.3243 44.6925 44.481 46.874 41.9891 46.874H16.4557C13.9638 46.874 12.1205 44.6922 12.2028 42.3263C12.282 40.0535 12.1792 37.1092 11.4379 34.7087C10.6949 32.3008 9.43803 30.7787 7.38501 30.5828V28.3652C9.43803 28.1698 10.6949 26.6476 11.4379 24.2394C12.1792 21.8388 12.2816 18.8946 12.2028 16.6218V16.6218Z" fill="url(#paint0_linear_70_338)"/>
<g filter="url(#filter0_d_70_338)">
<path d="M30.3007 38.8511C34.3349 38.8511 36.7659 36.8759 36.7659 33.6179C36.7659 31.1552 35.0313 29.3723 32.4558 29.0901V28.9874C34.348 28.6796 35.8329 26.9224 35.8329 24.9599C35.8329 22.1637 33.6253 20.3423 30.2613 20.3423H22.6923V38.8511H30.3007ZM25.6358 22.6896H29.5518C31.6805 22.6896 32.8894 23.6387 32.8894 25.3575C32.8894 27.1917 31.4834 28.2178 28.9341 28.2178H25.6358V22.6896ZM25.6358 36.5038V30.4112H29.5254C32.3112 30.4112 33.7567 31.4373 33.7567 33.4383C33.7567 35.4392 32.3507 36.5038 29.6963 36.5038H25.6358Z" fill="url(#paint1_linear_70_338)"/>
<path d="M30.3007 38.8511C34.3349 38.8511 36.7659 36.8759 36.7659 33.6179C36.7659 31.1552 35.0313 29.3723 32.4558 29.0901V28.9874C34.348 28.6796 35.8329 26.9224 35.8329 24.9599C35.8329 22.1637 33.6253 20.3423 30.2613 20.3423H22.6923V38.8511H30.3007ZM25.6358 22.6896H29.5518C31.6805 22.6896 32.8894 23.6387 32.8894 25.3575C32.8894 27.1917 31.4834 28.2178 28.9341 28.2178H25.6358V22.6896ZM25.6358 36.5038V30.4112H29.5254C32.3112 30.4112 33.7567 31.4373 33.7567 33.4383C33.7567 35.4392 32.3507 36.5038 29.6963 36.5038H25.6358Z" stroke="white" stroke-width="0.0852942"/>
</g>
<defs>
<filter id="filter0_d_70_338" x="21.285" y="19.276" width="16.8883" height="21.3237" filterUnits="userSpaceOnUse" color-interpolation-filters="sRGB">
<feFlood flood-opacity="0" result="BackgroundImageFix"/>
<feColorMatrix in="SourceAlpha" type="matrix" values="0 0 0 0 0 0 0 0 0 0 0 0 0 0 0 0 0 0 127 0" result="hardAlpha"/>
<feOffset dy="0.341177"/>
<feGaussianBlur stdDeviation="0.682353"/>
<feColorMatrix type="matrix" values="0 0 0 0 0 0 0 0 0 0 0 0 0 0 0 0 0 0 0.15 0"/>
<feBlend mode="normal" in2="BackgroundImageFix" result="effect1_dropShadow_70_338"/>
<feBlend mode="normal" in="SourceGraphic" in2="effect1_dropShadow_70_338" result="shape"/>
</filter>
<linearGradient id="paint0_linear_70_338" x1="13.8745" y1="12.9947" x2="52.0352" y2="43.2871" gradientUnits="userSpaceOnUse">
<stop stop-color="#9013FE"/>
<stop offset="1" stop-color="#6610F2"/>
</linearGradient>
<linearGradient id="paint1_linear_70_338" x1="24.0239" y1="21.5603" x2="32.5533" y2="35.9861" gradientUnits="userSpaceOnUse">
<stop stop-color="white"/>
<stop offset="1" stop-color="#F1E5FC"/>
</linearGradient>
</defs>
</svg>
