<svg width="59" height="59" viewBox="0 0 59 59" fill="none" xmlns="http://www.w3.org/2000/svg">
<rect width="58.4012" height="58.4012" rx="29.2006" fill="white"/>
<path d="M48.6324 18.1546L48.7413 18.0821C48.5236 17.683 48.197 17.3201 47.8705 17.1387L30.3458 7.05208C30.0556 6.87066 29.6565 6.7981 29.2211 6.7981C28.7857 6.7981 28.3866 6.90694 28.0963 7.05208L10.6805 17.175C10.0637 17.5378 9.6283 18.4449 9.6283 19.1343V39.3439C9.6283 39.743 9.70086 40.1784 9.95484 40.5775L9.88228 40.6138C10.0637 40.904 10.3177 41.158 10.5717 41.3031L28.06 51.4261C28.3503 51.6075 28.7494 51.6801 29.1848 51.6801C29.6202 51.6801 30.0193 51.5712 30.3096 51.4261L47.7254 41.3031C48.3422 40.9403 48.7776 40.0332 48.7776 39.3439V19.098C48.8138 18.8077 48.7776 18.4812 48.6324 18.1546ZM29.2211 38.1103C32.5228 38.1103 35.4254 36.2961 36.9493 33.6112L41.6298 36.3687C39.1626 40.6501 34.5184 43.5527 29.2211 43.5527C21.3114 43.5527 14.8893 37.1306 14.8893 29.2209C14.8893 21.3113 21.3114 14.8892 29.2211 14.8892C34.5547 14.8892 39.1989 17.8281 41.6661 22.1458L36.9493 24.867C35.4254 22.1458 32.5228 20.3316 29.2211 20.3316C24.3229 20.3316 20.3318 24.3227 20.3318 29.2209C20.3318 34.1191 24.3229 38.1103 29.2211 38.1103Z" fill="#03599C"/>
</svg>
