<svg width="59" height="59" viewBox="0 0 59 59" fill="none" xmlns="http://www.w3.org/2000/svg">
<rect width="58.4012" height="58.4012" rx="29.2006" fill="white"/>
<path d="M9.94281 11.3359L13.3207 49.2576L28.4775 53.4837L43.6766 49.2421L47.0572 11.3359H9.94281ZM40.0398 20.024L38.9154 32.6569L38.9188 32.7251L38.9141 32.882V32.8806L38.1152 41.7138L38.0272 42.4985L28.5 45.1336V45.1339L28.4926 45.1403L18.9819 42.4904L18.3379 35.1875H23.0017L23.3326 38.901L28.5013 40.3018L28.5 40.3045V40.3038L33.6879 38.8831L34.2361 32.8359H23.3911L23.298 31.8137L23.086 29.4188L22.9748 28.1328H34.6483L35.073 23.4297H17.2931L17.2001 22.4081L16.9884 20.0125L16.8769 18.7266H40.151L40.0398 20.024V20.024Z" fill="#1572B6"/>
</svg>
