<svg width="59" height="59" viewBox="0 0 59 59" fill="none" xmlns="http://www.w3.org/2000/svg">
<rect width="58.4012" height="58.4012" rx="29.2006" fill="white"/>
<mask id="mask0_70_416" style="mask-type:luminance" maskUnits="userSpaceOnUse" x="12" y="6" width="35" height="48">
<path d="M42.4065 16.669C42.2975 16.0733 41.752 15.6942 41.1521 15.7754C40.9339 15.8025 40.7158 15.9108 40.5521 16.0733L34.8799 21.7058L30.4348 13.2841C30.1621 12.7425 29.5076 12.5529 28.9622 12.8237C28.7713 12.9321 28.6077 13.0945 28.4986 13.2841L26.0715 17.8876L19.963 6.56841C19.6903 6.0539 19.0085 5.83727 18.4904 6.13514C18.1904 6.29762 17.9722 6.59549 17.9177 6.92044L12 44.4524L27.7896 53.2532C28.7713 53.7948 29.9985 53.7948 30.9802 53.2532L46.9062 44.4524L42.4065 16.669Z" fill="white"/>
</mask>
<g mask="url(#mask0_70_416)">
<path d="M12 44.4524L17.9177 6.9204C17.9995 6.32465 18.5721 5.91846 19.1721 6.02678C19.4993 6.08094 19.7993 6.29757 19.9629 6.59544L26.0715 17.9146L28.4986 13.3111C28.7713 12.7695 29.4258 12.58 29.9712 12.8508C30.1621 12.9591 30.3257 13.1216 30.4348 13.3111L46.9061 44.4524H12Z" fill="#FFA000"/>
<path opacity="0.12" d="M32.1801 6.27064L3.27347 3.8335V55.8258L12 44.4525L32.1801 6.27064Z" fill="url(#paint0_linear_70_416)"/>
<path d="M32.4255 29.8294L26.0715 17.8875L12 44.4523L32.4255 29.8294Z" fill="#F57C00"/>
<path opacity="0.2" d="M3.27347 3.8335H55.6327V55.8258H3.27347V3.8335Z" fill="url(#paint1_linear_70_416)"/>
<path d="M46.9061 44.4526L42.3792 16.6421C42.2702 16.0463 41.7247 15.6672 41.1248 15.7485C40.9066 15.7756 40.6885 15.8839 40.5248 16.0463L12 44.4526L27.7896 53.2534C28.7713 53.7949 29.9985 53.7949 30.9802 53.2534L46.9061 44.4526Z" fill="#FFCA28"/>
<path d="M42.4065 16.669C42.2974 16.0733 41.752 15.6942 41.1521 15.7754C40.9339 15.8025 40.7158 15.9108 40.5521 16.0733L34.8799 21.7058L30.4348 13.2841C30.1621 12.7425 29.5076 12.5529 28.9622 12.8237C28.7713 12.9321 28.6077 13.0945 28.4986 13.2841L26.0715 17.8876L19.963 6.56841C19.6903 6.0539 19.0085 5.83727 18.4904 6.13514C18.1904 6.29762 17.9722 6.59549 17.9177 6.92044L12 44.4524H11.9727L12 44.4795L12.1636 44.5607L34.8799 21.9766L40.5521 16.3441C40.9885 15.9108 41.6702 15.9108 42.1066 16.3441C42.2702 16.5065 42.3793 16.6961 42.4065 16.9398L46.8789 44.4795L46.9334 44.4524L42.4065 16.669ZM12.0545 44.3982L17.9177 7.19124C17.9995 6.59549 18.5722 6.1893 19.1721 6.29762C19.4994 6.35178 19.7993 6.56841 19.963 6.86628L26.0715 18.1854L28.4986 13.582C28.7713 13.0404 29.4258 12.8508 29.9712 13.1216C30.1621 13.2299 30.3257 13.3924 30.4348 13.582L34.7981 21.8141L12.0545 44.3982Z" fill="white" fill-opacity="0.2"/>
<path opacity="0.2" d="M30.9802 52.9824C29.9985 53.524 28.7713 53.524 27.7896 52.9824L12.0272 44.2087L12 44.4525L27.7896 53.2532C28.7713 53.7948 29.9985 53.7948 30.9802 53.2532L46.9061 44.4525L46.8789 44.2087L30.9802 52.9824Z" fill="#A52714"/>
<path d="M42.4065 16.669C42.2974 16.0733 41.752 15.6942 41.1521 15.7754C40.9339 15.8025 40.7157 15.9108 40.5521 16.0733L34.8799 21.7058L30.4348 13.2841C30.1621 12.7425 29.5076 12.5529 28.9622 12.8237C28.7713 12.9321 28.6077 13.0945 28.4986 13.2841L26.0715 17.8876L19.9629 6.56841C19.6902 6.0539 19.0085 5.83727 18.4903 6.13514C18.1904 6.29762 17.9722 6.59549 17.9177 6.92044L12 44.4524L27.7896 53.2532C28.7713 53.7948 29.9985 53.7948 30.9802 53.2532L46.9061 44.4524L42.4065 16.669Z" fill="url(#paint2_linear_70_416)"/>
</g>
<defs>
<linearGradient id="paint0_linear_70_416" x1="18.8018" y1="31.6048" x2="16.6267" y2="30.4603" gradientUnits="userSpaceOnUse">
<stop stop-color="#A52714"/>
<stop offset="0.4" stop-color="#A52714" stop-opacity="0.5"/>
<stop offset="0.8" stop-color="#A52714" stop-opacity="0"/>
</linearGradient>
<linearGradient id="paint1_linear_70_416" x1="28.0735" y1="28.4532" x2="27.1041" y2="27.4769" gradientUnits="userSpaceOnUse">
<stop stop-color="#A52714" stop-opacity="0.8"/>
<stop offset="0.5" stop-color="#A52714" stop-opacity="0.21"/>
<stop offset="1" stop-color="#A52714" stop-opacity="0"/>
</linearGradient>
<linearGradient id="paint2_linear_70_416" x1="11.0602" y1="14.3869" x2="47.2608" y2="50.8431" gradientUnits="userSpaceOnUse">
<stop stop-color="white" stop-opacity="0.1"/>
<stop offset="1" stop-color="white" stop-opacity="0"/>
</linearGradient>
</defs>
</svg>
