<svg width="59" height="59" viewBox="0 0 59 59" fill="none" xmlns="http://www.w3.org/2000/svg">
<rect width="58.4012" height="58.4012" rx="29.2006" fill="white"/>
<path d="M34.4939 25.6806C33.3297 25.6806 32.4629 26.2523 32.4629 27.6282C32.4629 28.6647 33.0341 29.3844 34.4313 29.3844C35.6155 29.3844 36.4202 28.6864 36.4202 27.5853C36.4202 26.3373 35.7001 25.6806 34.4939 25.6806V25.6806ZM32.1669 35.3952C31.8913 35.7333 31.6165 36.0927 31.6165 36.5167C31.6165 37.3627 32.6952 37.6171 34.1774 37.6171C35.4045 37.6171 37.0765 37.5312 37.0765 36.39C37.0765 35.7116 36.2717 35.6699 35.2556 35.6061L32.1669 35.3952ZM38.4299 25.7444C38.8105 26.2314 39.2133 26.9086 39.2133 27.8821C39.2133 30.2308 37.3721 31.6063 34.7061 31.6063C34.0281 31.6063 33.4144 31.5221 33.0337 31.4162L32.3353 32.5378L34.4088 32.6641C38.07 32.8976 40.2282 33.0035 40.2282 35.8171C40.2282 38.2512 38.0913 39.6259 34.4088 39.6259C30.5783 39.6259 29.1186 38.6523 29.1186 36.9812C29.1186 36.0285 29.5422 35.5219 30.2827 34.8222C29.5839 34.5271 29.3516 33.9984 29.3516 33.4267C29.3516 32.961 29.5843 32.5378 29.9654 32.1354C30.3465 31.7339 30.7697 31.3311 31.2771 30.8658C30.2402 30.358 29.4575 29.2577 29.4575 27.6912C29.4575 25.2579 31.0657 23.5867 34.3033 23.5867C35.2135 23.5867 35.7643 23.6705 36.2505 23.7986H40.3774V25.5968L38.4299 25.7444V25.7444ZM44.1004 21.8995C42.8937 21.8995 42.1953 21.2006 42.1953 19.994C42.1953 18.789 42.8937 18.1323 44.1004 18.1323C45.3279 18.1323 46.0258 18.7886 46.0258 19.994C46.0262 21.2006 45.3279 21.8995 44.1004 21.8995V21.8995ZM41.3697 34.6168V32.9457L42.4497 32.7977C42.7457 32.7551 42.7878 32.6918 42.7878 32.3736V26.1523C42.7878 25.9201 42.7248 25.7712 42.5126 25.7083L41.3697 25.3059L41.6024 23.5927H45.9837V32.374C45.9837 32.7135 46.0041 32.7551 46.3223 32.7981L47.4018 32.9461V34.6172H41.3697V34.6168ZM55.7701 33.7959C54.8595 34.2395 53.5269 34.6423 52.3198 34.6423C49.8019 34.6423 48.85 33.6275 48.85 31.235V25.6908C48.85 25.5645 48.85 25.4795 48.6803 25.4795H47.1993V23.5961C49.0622 23.3839 49.8023 22.4528 50.035 20.1463H52.0459V23.1521C52.0459 23.2996 52.0459 23.3639 52.2152 23.3639H55.1989V25.4799H52.0459V30.537C52.0459 31.7854 52.3424 32.272 53.4848 32.272C54.0781 32.272 54.6911 32.1244 55.1989 31.9338L55.7701 33.7959V33.7959Z" fill="#31251C"/>
<path d="M24.4148 28.2429L14.739 18.5675C14.4714 18.2999 14.1085 18.1497 13.7302 18.1497C13.3518 18.1497 12.9889 18.2999 12.7213 18.5675L10.712 20.5767L13.2602 23.1253C13.5598 23.0234 13.882 23.0075 14.1902 23.0794C14.4984 23.1512 14.7803 23.308 15.004 23.5319C15.229 23.7571 15.3861 24.041 15.4574 24.3513C15.5286 24.6616 15.5111 24.9856 15.4068 25.2864L17.8631 27.7427C18.2261 27.6162 18.6213 27.6167 18.984 27.7443C19.3467 27.8719 19.6552 28.1188 19.8591 28.4448C20.0631 28.7707 20.1502 29.1562 20.1063 29.5381C20.0624 29.92 19.8901 30.2757 19.6176 30.5469C19.3401 30.8248 18.9749 30.998 18.5841 31.037C18.1933 31.0759 17.8011 30.9782 17.4742 30.7604C17.1474 30.5426 16.9062 30.2182 16.7917 29.8426C16.6771 29.4669 16.6964 29.0632 16.8461 28.7001L14.5553 26.4093L14.5549 32.4379C14.7967 32.5573 15.0065 32.7326 15.1671 32.9493C15.3277 33.166 15.4343 33.4178 15.4782 33.6839C15.5221 33.9499 15.502 34.2227 15.4196 34.4794C15.3371 34.7362 15.1946 34.9696 15.004 35.1604C14.8263 35.3381 14.6113 35.4741 14.3746 35.5587C14.1379 35.6432 13.8854 35.6742 13.6353 35.6493C13.3851 35.6244 13.1437 35.5443 12.9283 35.4148C12.7129 35.2853 12.5289 35.1096 12.3896 34.9004C12.2503 34.6912 12.1592 34.4536 12.1228 34.2049C12.0865 33.9562 12.1058 33.7026 12.1793 33.4622C12.2529 33.2219 12.3789 33.0009 12.5482 32.8151C12.7175 32.6294 12.926 32.4835 13.1585 32.3881V26.3038C12.9512 26.2188 12.7627 26.0937 12.6039 25.9355C12.4452 25.7774 12.3193 25.5894 12.2337 25.3823C12.148 25.1753 12.1041 24.9533 12.1047 24.7292C12.1052 24.5051 12.1501 24.2834 12.2368 24.0768L9.72483 21.5639L3.09012 28.1982C2.95752 28.3307 2.85233 28.4881 2.78056 28.6613C2.70879 28.8346 2.67185 29.0202 2.67185 29.2077C2.67185 29.3952 2.70879 29.5809 2.78056 29.7541C2.85233 29.9273 2.95752 30.0847 3.09012 30.2172L12.7659 39.8926C13.0337 40.1602 13.3967 40.3105 13.7752 40.3105C14.1538 40.3105 14.5168 40.1602 14.7845 39.8926L24.4148 30.2615C24.5474 30.1289 24.6526 29.9716 24.7244 29.7984C24.7961 29.6252 24.8331 29.4396 24.8331 29.2522C24.8331 29.0647 24.7961 28.8791 24.7244 28.7059C24.6526 28.5327 24.5474 28.3754 24.4148 28.2429V28.2429Z" fill="#F34F29"/>
</svg>
