<svg width="59" height="59" viewBox="0 0 59 59" fill="none" xmlns="http://www.w3.org/2000/svg">
<rect width="58.4012" height="58.4012" rx="29.2006" fill="white"/>
<path fill-rule="evenodd" clip-rule="evenodd" d="M39.6721 23.2469H39.6574H21.9468L22.3704 27.3292H39.2507C39.0033 30.9053 38.2548 38.4817 37.9801 41.9292L28.499 44.5793V44.5873L28.478 44.5973L18.9905 41.2824L18.3406 33.4527H22.991L23.3202 37.6635L28.4864 39.5761H28.499L33.6568 37.7393L34.1872 31.4115H18.133C18.0554 30.593 17.0574 19.9647 16.8834 19.1646H40.0873C39.9573 20.5118 39.8252 21.8957 39.6721 23.2469ZM10 11L13.3673 48.0427L28.478 51.823L43.6285 47.967L47 11H10Z" fill="#F16529"/>
</svg>
