<svg width="59" height="59" viewBox="0 0 59 59" fill="none" xmlns="http://www.w3.org/2000/svg">
<rect width="58.4012" height="58.4012" rx="29.2006" fill="white"/>
<path d="M25.0951 30.573C25.0951 30.573 23.9144 31.2601 25.9367 31.4923C28.3866 31.7721 29.6389 31.7318 32.3383 31.2216C32.3383 31.2216 33.0498 31.6664 34.0407 32.0518C27.9875 34.6451 20.3409 31.9015 25.0951 30.573ZM24.3548 27.188C24.3548 27.188 23.0303 28.1692 25.0541 28.3784C27.6715 28.6484 29.7377 28.6707 33.3158 27.9818C33.3158 27.9818 33.8095 28.4838 34.5872 28.7574C27.2699 30.898 19.1196 28.926 24.3548 27.188V27.188Z" fill="#0074BD"/>
<path d="M30.5902 21.4458C32.0826 23.1637 30.199 24.7082 30.199 24.7082C30.199 24.7082 33.986 22.7534 32.2469 20.3046C30.6222 18.0219 29.3771 16.8883 36.1195 12.978C36.1199 12.978 25.5355 15.6206 30.5902 21.4458Z" fill="#EA2D2E"/>
<path d="M38.596 33.0769C38.596 33.0769 39.4704 33.7977 37.6331 34.355C34.1399 35.4131 23.0921 35.7324 20.0235 34.3971C18.9211 33.9171 20.9895 33.2512 21.6399 33.1114C22.3184 32.9643 22.706 32.9913 22.706 32.9913C21.4792 32.1273 14.7764 34.6879 19.3015 35.4225C31.6422 37.4226 41.7965 34.5215 38.596 33.0769V33.0769ZM25.6635 23.6808C25.6635 23.6808 20.0443 25.0157 23.6738 25.5011C25.2069 25.706 28.2608 25.6589 31.1076 25.4202C33.4334 25.225 35.7675 24.8076 35.7675 24.8076C35.7675 24.8076 34.9481 25.1592 34.3545 25.564C28.6473 27.0651 17.6243 26.3658 20.7979 24.8313C23.4811 23.533 25.6635 23.6808 25.6635 23.6808V23.6808ZM35.7441 29.3147C41.5452 26.3011 38.8627 23.4047 36.9906 23.7947C36.533 23.8904 36.3273 23.9731 36.3273 23.9731C36.3273 23.9731 36.4981 23.7056 36.8227 23.5909C40.5267 22.2894 43.3745 27.4311 35.6284 29.4675C35.6284 29.4675 35.7172 29.387 35.7441 29.3147Z" fill="#0074BD"/>
<path d="M32.2473 6.6626C32.2473 6.6626 35.4597 9.87648 29.1999 14.8176C24.18 18.7822 28.0551 21.0422 29.1977 23.6255C26.2675 20.9814 24.1182 18.6538 25.5599 16.488C27.6772 13.309 33.543 11.7669 32.2473 6.6626V6.6626Z" fill="#EA2D2E"/>
<path d="M26.2341 37.484C31.8011 37.84 40.3527 37.2859 40.5551 34.6516C40.5551 34.6516 40.1661 35.65 35.9534 36.4425C31.2011 37.337 25.3388 37.2331 21.8629 36.6593C21.8629 36.6593 22.5747 37.2489 26.2341 37.484V37.484Z" fill="#0074BD"/>
<path d="M40.298 42.2089H40.1283V42.114H40.5849V42.2089H40.4159V42.6824H40.2976L40.298 42.2089V42.2089ZM41.2094 42.2326H41.2073L41.039 42.6824H40.9613L40.7942 42.2326H40.7924V42.6824H40.6802V42.114H40.8445L40.9995 42.5163L41.1548 42.114H41.318V42.6824H41.2094V42.2326V42.2326ZM25.3216 47.5502C24.7966 48.0053 24.2415 48.2613 23.7429 48.2613C23.0331 48.2613 22.6481 47.8349 22.6481 47.1521C22.6481 46.4133 23.0601 45.8722 24.7111 45.8722H25.3212V47.5502H25.3216ZM26.7709 49.1853V44.1241C26.7709 42.8302 26.0327 41.9766 24.2552 41.9766C23.2176 41.9766 22.3079 42.2333 21.5684 42.5598L21.7812 43.4561C22.3637 43.2422 23.1169 43.0437 23.8561 43.0437C24.8808 43.0437 25.3212 43.4561 25.3212 44.3097V44.9493H24.8092C22.3209 44.9493 21.1981 45.9146 21.1981 47.3664C21.1981 48.6173 21.938 49.3281 23.3312 49.3281C24.2264 49.3281 24.8955 48.9585 25.52 48.4174L25.6336 49.1857H26.7709V49.1853V49.1853ZM31.6073 49.1853H29.7999L27.6244 42.1064H29.2031L30.5535 46.4564L30.8537 47.7634C31.5354 45.8729 32.0186 43.9537 32.2602 42.1068H33.7958C33.3849 44.4369 32.6442 46.9957 31.6073 49.1853V49.1853ZM38.542 47.5502C38.0153 48.0053 37.4598 48.2613 36.963 48.2613C36.2525 48.2613 35.8678 47.8349 35.8678 47.1521C35.8678 46.4133 36.2809 45.8722 37.9301 45.8722H38.5417V47.5502H38.542ZM39.992 49.1853V44.1241C39.992 42.8302 39.2518 41.9766 37.4757 41.9766C36.437 41.9766 35.5277 42.2333 34.7881 42.5598L35.0013 43.4561C35.5838 43.2422 36.3381 43.0437 37.0773 43.0437C38.1005 43.0437 38.542 43.4561 38.542 44.3097V44.9493H38.0301C35.541 44.9493 34.4185 45.9146 34.4185 47.3664C34.4185 48.6173 35.1577 49.3281 36.5506 49.3281C37.4462 49.3281 38.1142 48.9585 38.7405 48.4174L38.8548 49.1857H39.992V49.1853V49.1853ZM19.6089 50.3883C19.1965 50.992 18.5285 51.4698 17.7979 51.7391L17.0828 50.896C17.639 50.6105 18.1154 50.15 18.3372 49.7207C18.5285 49.3385 18.608 48.847 18.608 47.671V39.5879H20.1482V47.5599C20.1482 49.1328 20.0231 49.7688 19.6089 50.3883Z" fill="#EA2D2E"/>
</svg>
