<svg width="59" height="59" viewBox="0 0 59 59" fill="none" xmlns="http://www.w3.org/2000/svg">
<rect width="58.4012" height="58.4012" rx="29.2006" fill="white"/>
<path d="M9 19.0887C9 13.5169 13.5169 9 19.0887 9H38.9113C44.4831 9 49 13.5169 49 19.0887V39.2175C49 44.7893 44.4831 49.3062 38.9113 49.3062H19.0887C13.5169 49.3062 9 44.7893 9 39.2175V19.0887Z" fill="#F7DF1E"/>
<path d="M19.301 42.2738L22.362 40.4072C22.9526 41.4622 23.4898 42.3549 24.7784 42.3549C26.0135 42.3549 26.7924 41.8681 26.7924 39.9743V27.0956H30.5514V40.0279C30.5514 43.951 28.2692 45.7367 24.9395 45.7367C21.9324 45.7367 20.1871 44.1678 19.301 42.2738ZM32.5931 41.8679L35.6537 40.0823C36.4595 41.4082 37.5067 42.3822 39.3592 42.3822C40.9168 42.3822 41.9099 41.5974 41.9099 40.5152C41.9099 39.2165 40.8896 38.7565 39.1712 37.9992L38.2317 37.593C35.5196 36.4299 33.7207 34.9688 33.7207 31.8844C33.7207 29.0435 35.8687 26.8789 39.2251 26.8789C41.6148 26.8789 43.3332 27.7178 44.5682 29.9093L41.6414 31.8033C40.9968 30.64 40.299 30.1801 39.2249 30.1801C38.124 30.1801 37.4259 30.8835 37.4259 31.8033C37.4259 32.9396 38.124 33.3999 39.735 34.1033L40.6746 34.5091C43.8699 35.8891 45.6689 37.2959 45.6689 40.4612C45.6689 43.8705 43.0107 45.7372 39.4396 45.7372C35.9492 45.7372 33.6939 44.0596 32.5931 41.8679Z" fill="black"/>
</svg>
