<svg width="59" height="59" viewBox="0 0 59 59" fill="none" xmlns="http://www.w3.org/2000/svg">
<rect width="58.4012" height="58.4012" rx="29.2006" fill="white"/>
<g clip-path="url(#clip0_80_475)">
<path fill-rule="evenodd" clip-rule="evenodd" d="M28.9293 44.4858C28.7598 44.4858 28.6016 44.4406 28.4546 44.3615L26.9515 43.4686C26.7254 43.3443 26.8385 43.2991 26.9063 43.2765C27.2114 43.1748 27.2679 43.1522 27.5844 42.9713C27.6183 42.9487 27.6635 42.96 27.6974 42.9826L28.8502 43.6721C28.8954 43.6947 28.9519 43.6947 28.9858 43.6721L33.4953 41.0613C33.5405 41.0387 33.5631 40.9935 33.5631 40.937V35.7268C33.5631 35.6703 33.5405 35.625 33.4953 35.6024L28.9858 33.003C28.9406 32.9804 28.8841 32.9804 28.8502 33.003L24.3407 35.6024C24.2955 35.625 24.2729 35.6816 24.2729 35.7268V40.937C24.2729 40.9822 24.2955 41.0387 24.3407 41.0613L25.5726 41.7733C26.2394 42.1124 26.6576 41.7168 26.6576 41.3213V36.1788C26.6576 36.111 26.7141 36.0432 26.7932 36.0432H27.3696C27.4375 36.0432 27.5053 36.0997 27.5053 36.1788V41.3213C27.5053 42.2141 27.0193 42.734 26.1716 42.734C25.9117 42.734 25.7083 42.734 25.1319 42.4515L23.9451 41.7733C23.6513 41.6038 23.4705 41.2873 23.4705 40.9483V35.7381C23.4705 35.399 23.6513 35.0826 23.9451 34.913L28.4546 32.3023C28.7372 32.144 29.1215 32.144 29.404 32.3023L33.9135 34.913C34.2074 35.0826 34.3882 35.399 34.3882 35.7381V40.9483C34.3882 41.2873 34.2074 41.6038 33.9135 41.7733L29.404 44.3841C29.2571 44.4519 29.0875 44.4858 28.9293 44.4858ZM30.3195 40.9031C28.3416 40.9031 27.9347 39.9989 27.9347 39.2304C27.9347 39.1626 27.9913 39.0948 28.0704 39.0948H28.6581C28.7259 39.0948 28.7824 39.14 28.7824 39.2078C28.8728 39.8068 29.1328 40.1006 30.3308 40.1006C31.2801 40.1006 31.687 39.8859 31.687 39.3773C31.687 39.0835 31.574 38.8687 30.0934 38.7218C28.8615 38.5975 28.093 38.3262 28.093 37.343C28.093 36.4275 28.8615 35.885 30.1499 35.885C31.5966 35.885 32.3086 36.3823 32.399 37.4673C32.399 37.5012 32.3877 37.5351 32.3651 37.569C32.3425 37.5916 32.3086 37.6142 32.2747 37.6142H31.687C31.6305 37.6142 31.574 37.569 31.5627 37.5125C31.4271 36.8909 31.0767 36.6874 30.1499 36.6874C29.1102 36.6874 28.9858 37.0491 28.9858 37.3203C28.9858 37.6481 29.1328 37.7498 30.5342 37.9307C31.9243 38.1115 32.5799 38.3714 32.5799 39.3434C32.5686 40.338 31.7548 40.9031 30.3195 40.9031Z" fill="#539E43"/>
<path fill-rule="evenodd" clip-rule="evenodd" d="M14.9375 24.1083C14.9375 23.9048 14.8245 23.7127 14.6436 23.611L9.85159 20.8533C9.77247 20.8081 9.68206 20.7855 9.59164 20.7742H9.54643C9.45602 20.7742 9.3656 20.8081 9.28649 20.8533L4.49444 23.611C4.31361 23.7127 4.20059 23.9048 4.20059 24.1083L4.21189 31.5224C4.21189 31.6241 4.2684 31.7258 4.35882 31.771C4.44924 31.8275 4.56226 31.8275 4.64137 31.771L7.48947 30.1435C7.6703 30.0418 7.78332 29.8497 7.78332 29.6462V26.1765C7.78332 25.9731 7.89634 25.781 8.07718 25.6792L9.28649 24.9785C9.3769 24.922 9.47862 24.8994 9.58034 24.8994C9.68206 24.8994 9.78378 24.922 9.86289 24.9785L11.0722 25.6792C11.253 25.781 11.3661 25.9731 11.3661 26.1765V29.6462C11.3661 29.8497 11.4791 30.0418 11.6599 30.1435L14.508 31.771C14.5984 31.8275 14.7114 31.8275 14.8019 31.771C14.8923 31.7258 14.9488 31.6241 14.9488 31.5224L14.9375 24.1083V24.1083V24.1083Z" fill="#333333"/>
<path fill-rule="evenodd" clip-rule="evenodd" d="M37.9709 13.9026C37.8805 13.8574 37.7674 13.8574 37.6883 13.9026C37.5979 13.9591 37.5414 14.0495 37.5414 14.1512V21.4975C37.5414 21.5653 37.5075 21.6331 37.4397 21.6783C37.3719 21.7122 37.3041 21.7122 37.2363 21.6783L36.0382 20.9889C35.8574 20.8872 35.6427 20.8872 35.4618 20.9889L30.6698 23.7579C30.489 23.8596 30.3759 24.0517 30.3759 24.2552V29.7819C30.3759 29.9853 30.489 30.1774 30.6698 30.2791L35.4618 33.0481C35.6427 33.1498 35.8574 33.1498 36.0382 33.0481L40.8303 30.2791C41.0111 30.1774 41.1241 29.9853 41.1241 29.7819V16.0047C41.1241 15.79 41.0111 15.5979 40.8303 15.4961L37.9709 13.9026V13.9026V13.9026ZM37.5301 27.9622C37.5301 28.0187 37.5075 28.0639 37.4623 28.0866L35.8235 29.0359C35.7783 29.0585 35.7217 29.0585 35.6765 29.0359L34.0378 28.0866C33.9925 28.0639 33.9699 28.0074 33.9699 27.9622V26.0635C33.9699 26.007 33.9925 25.9618 34.0378 25.9392L35.6765 24.9898C35.7217 24.9672 35.7783 24.9672 35.8235 24.9898L37.4623 25.9392C37.5075 25.9618 37.5301 26.0183 37.5301 26.0635V27.9622V27.9622V27.9622Z" fill="#333333"/>
<path fill-rule="evenodd" clip-rule="evenodd" d="M53.9181 26.0182C54.0989 25.9165 54.2006 25.7244 54.2006 25.5209V24.176C54.2006 23.9726 54.0876 23.7804 53.9181 23.6787L49.1599 20.921C48.9791 20.8193 48.7643 20.8193 48.5835 20.921L43.7915 23.69C43.6106 23.7917 43.4976 23.9839 43.4976 24.1873V29.714C43.4976 29.9174 43.6106 30.1095 43.7915 30.2113L48.5496 32.9237C48.7304 33.0254 48.9452 33.0254 49.1147 32.9237L51.9967 31.3188C52.0871 31.2736 52.1436 31.1719 52.1436 31.0702C52.1436 30.9685 52.0871 30.8668 51.9967 30.8216L47.1821 28.0526C47.0917 27.9961 47.0351 27.9056 47.0351 27.8039V26.0747C47.0351 25.973 47.0917 25.8713 47.1821 25.8261L48.6852 24.9671C48.7756 24.9106 48.8887 24.9106 48.9791 24.9671L50.4822 25.8261C50.5727 25.8826 50.6292 25.973 50.6292 26.0747V27.431C50.6292 27.5327 50.6857 27.6344 50.7761 27.6796C50.8665 27.7361 50.9795 27.7361 51.07 27.6796L53.9181 26.0182V26.0182V26.0182Z" fill="#333333"/>
<path fill-rule="evenodd" clip-rule="evenodd" d="M48.7982 25.7582C48.8321 25.7356 48.8773 25.7356 48.9113 25.7582L49.8267 26.2894C49.8606 26.312 49.8832 26.3459 49.8832 26.3911V27.4535C49.8832 27.4987 49.8606 27.5326 49.8267 27.5552L48.9113 28.0864C48.8773 28.109 48.8321 28.109 48.7982 28.0864L47.8828 27.5552C47.8489 27.5326 47.8263 27.4987 47.8263 27.4535V26.3911C47.8263 26.3459 47.8489 26.312 47.8828 26.2894L48.7982 25.7582V25.7582V25.7582Z" fill="#539E43"/>
<path fill-rule="evenodd" clip-rule="evenodd" d="M22.9506 20.9437C22.7698 20.842 22.555 20.842 22.3742 20.9437L17.616 23.6901C17.4352 23.7918 17.3335 23.984 17.3335 24.1874V29.6915C17.3335 29.8949 17.4465 30.087 17.616 30.1887L22.3742 32.9351C22.555 33.0369 22.7698 33.0369 22.9506 32.9351L27.7087 30.1887C27.8896 30.087 27.9913 29.8949 27.9913 29.6915V24.1874C27.9913 23.984 27.8783 23.7918 27.7087 23.6901L22.9506 20.9437V20.9437V20.9437Z" fill="white"/>
<path fill-rule="evenodd" clip-rule="evenodd" d="M22.9506 20.9437C22.7698 20.842 22.555 20.842 22.3742 20.9437L17.616 23.6901C17.4352 23.7918 17.3335 23.984 17.3335 24.1874V29.6915C17.3335 29.8949 17.4465 30.087 17.616 30.1887L22.3742 32.9351C22.555 33.0369 22.7698 33.0369 22.9506 32.9351L27.7087 30.1887C27.8896 30.087 27.9913 29.8949 27.9913 29.6915V24.1874C27.9913 23.984 27.8783 23.7918 27.7087 23.6901L22.9506 20.9437V20.9437V20.9437Z" fill="url(#paint0_linear_80_475)"/>
<mask id="mask0_80_475" style="mask-type:luminance" maskUnits="userSpaceOnUse" x="17" y="20" width="11" height="14">
<path fill-rule="evenodd" clip-rule="evenodd" d="M22.9506 20.9437C22.7698 20.842 22.555 20.842 22.3742 20.9437L17.616 23.6901C17.4352 23.7918 17.3335 23.984 17.3335 24.1874V29.6915C17.3335 29.8949 17.4465 30.087 17.616 30.1887L22.3742 32.9351C22.555 33.0369 22.7698 33.0369 22.9506 32.9351L27.7087 30.1887C27.8896 30.087 27.9913 29.8949 27.9913 29.6915V24.1874C27.9913 23.984 27.8783 23.7918 27.7087 23.6901L22.9506 20.9437V20.9437V20.9437Z" fill="white"/>
</mask>
<g mask="url(#mask0_80_475)">
<path fill-rule="evenodd" clip-rule="evenodd" d="M27.7201 23.6901L22.9394 20.9437C22.8942 20.9211 22.8377 20.8985 22.7924 20.8872L17.4353 30.0644C17.4805 30.1209 17.537 30.1661 17.5935 30.2L22.3743 32.9464C22.5099 33.0255 22.6681 33.0481 22.8151 33.0029L27.8444 23.8031C27.8105 23.7579 27.7653 23.724 27.7201 23.6901V23.6901V23.6901Z" fill="url(#paint1_linear_80_475)"/>
</g>
<mask id="mask1_80_475" style="mask-type:luminance" maskUnits="userSpaceOnUse" x="17" y="20" width="11" height="14">
<path fill-rule="evenodd" clip-rule="evenodd" d="M22.9506 20.9437C22.7698 20.842 22.555 20.842 22.3742 20.9437L17.616 23.6901C17.4352 23.7918 17.3335 23.984 17.3335 24.1874V29.6915C17.3335 29.8949 17.4465 30.087 17.616 30.1887L22.3742 32.9351C22.555 33.0369 22.7698 33.0369 22.9506 32.9351L27.7087 30.1887C27.8896 30.087 27.9913 29.8949 27.9913 29.6915V24.1874C27.9913 23.984 27.8783 23.7918 27.7087 23.6901L22.9506 20.9437V20.9437V20.9437Z" fill="white"/>
</mask>
<g mask="url(#mask1_80_475)">
<path fill-rule="evenodd" clip-rule="evenodd" d="M27.7314 30.1888C27.867 30.1097 27.9687 29.9741 28.0139 29.8272L22.7698 20.876C22.6342 20.8534 22.4872 20.8647 22.3629 20.9438L17.6161 23.6789L22.7359 33.0143C22.8037 33.003 22.8828 32.9804 22.9506 32.9465L27.7314 30.1888V30.1888V30.1888Z" fill="url(#paint2_linear_80_475)"/>
<path fill-rule="evenodd" clip-rule="evenodd" d="M27.7313 30.1889L22.9619 32.9353C22.8941 32.9692 22.8263 32.9918 22.7472 33.0031L22.8376 33.1726L28.1269 30.1098V30.042L27.9913 29.8159C27.9687 29.9741 27.867 30.1098 27.7313 30.1889V30.1889V30.1889Z" fill="url(#paint3_linear_80_475)"/>
<path fill-rule="evenodd" clip-rule="evenodd" d="M27.7313 30.1889L22.9619 32.9353C22.8941 32.9692 22.8263 32.9918 22.7472 33.0031L22.8376 33.1726L28.1269 30.1098V30.042L27.9913 29.8159C27.9687 29.9741 27.867 30.1098 27.7313 30.1889V30.1889V30.1889Z" fill="url(#paint4_linear_80_475)"/>
</g>
</g>
<defs>
<linearGradient id="paint0_linear_80_475" x1="21.6347" y1="21.4473" x2="16.5699" y2="27.5767" gradientUnits="userSpaceOnUse">
<stop stop-color="#41873F"/>
<stop offset="0.3288" stop-color="#418B3D"/>
<stop offset="0.6352" stop-color="#419637"/>
<stop offset="0.9319" stop-color="#3FA92D"/>
<stop offset="1" stop-color="#3FAE2A"/>
</linearGradient>
<linearGradient id="paint1_linear_80_475" x1="24.7519" y1="34.4565" x2="37.4213" y2="29.3951" gradientUnits="userSpaceOnUse">
<stop offset="0.1376" stop-color="#41873F"/>
<stop offset="0.4032" stop-color="#54A044"/>
<stop offset="0.7136" stop-color="#66B848"/>
<stop offset="0.9081" stop-color="#6CC04A"/>
</linearGradient>
<linearGradient id="paint2_linear_80_475" x1="17.1597" y1="33.3717" x2="28.1698" y2="33.3717" gradientUnits="userSpaceOnUse">
<stop offset="0.0919165" stop-color="#6CC04A"/>
<stop offset="0.2864" stop-color="#66B848"/>
<stop offset="0.5968" stop-color="#54A044"/>
<stop offset="0.8624" stop-color="#41873F"/>
</linearGradient>
<linearGradient id="paint3_linear_80_475" x1="17.1597" y1="34.9384" x2="28.1698" y2="34.9384" gradientUnits="userSpaceOnUse">
<stop offset="0.0919165" stop-color="#6CC04A"/>
<stop offset="0.2864" stop-color="#66B848"/>
<stop offset="0.5968" stop-color="#54A044"/>
<stop offset="0.8624" stop-color="#41873F"/>
</linearGradient>
<linearGradient id="paint4_linear_80_475" x1="16.025" y1="21.9062" x2="14.9869" y2="35.8778" gradientUnits="userSpaceOnUse">
<stop stop-color="#41873F"/>
<stop offset="0.3288" stop-color="#418B3D"/>
<stop offset="0.6352" stop-color="#419637"/>
<stop offset="0.9319" stop-color="#3FA92D"/>
<stop offset="1" stop-color="#3FAE2A"/>
</linearGradient>
<clipPath id="clip0_80_475">
<rect width="50" height="50" fill="white" transform="translate(4.20059 4.20068)"/>
</clipPath>
</defs>
</svg>
