<svg width="59" height="59" viewBox="0 0 59 59" fill="none" xmlns="http://www.w3.org/2000/svg">
<rect width="58.4012" height="58.4012" rx="29.2006" fill="white"/>
<g clip-path="url(#clip0_80_258)">
<path d="M55.9798 32.5867C57.8694 17.976 47.4223 4.61837 32.656 2.75204C17.8896 0.885705 4.31108 11.2038 2.42142 25.7879C0.531759 40.3719 10.9789 53.7562 25.7452 55.6492C40.5386 57.5155 54.0631 47.1974 55.9798 32.5867Z" fill="#FF6C37"/>
<path d="M38.9458 19.6556L27.5539 30.9069L24.3415 27.7342C35.5444 16.6695 36.6512 17.6293 38.9458 19.6556Z" fill="white"/>
<path d="M27.5539 31.1735C27.4729 31.1735 27.4189 31.1469 27.3649 31.0936L24.1255 27.9208C24.0175 27.8142 24.0175 27.6542 24.1255 27.5475C35.5175 16.2962 36.7052 17.3627 39.1078 19.4956C39.1618 19.549 39.1888 19.6023 39.1888 19.6823C39.1888 19.7623 39.1618 19.8156 39.1078 19.8689L27.7159 31.0936C27.6889 31.1469 27.6079 31.1735 27.5539 31.1735ZM24.7194 27.7342L27.5539 30.5337L38.5409 19.6823C36.5433 17.9226 35.1935 17.3894 24.7194 27.7342Z" fill="#FF6C37"/>
<path d="M30.8203 34.1331L27.7159 31.067L39.1078 19.8157C42.1583 22.8551 37.5961 27.7876 30.8203 34.1331Z" fill="white"/>
<path d="M30.8203 34.3997C30.7393 34.3997 30.6853 34.3731 30.6313 34.3197L27.5269 31.2536C27.4729 31.2003 27.4729 31.147 27.4729 31.067C27.4729 30.987 27.4999 30.9337 27.5539 30.8804L38.9458 19.6291C39.0538 19.5224 39.2158 19.5224 39.3237 19.6291C40.0256 20.2689 40.4035 21.1754 40.3765 22.1086C40.3226 25.0681 36.9212 28.8274 31.0362 34.3197C30.9552 34.3731 30.8743 34.3997 30.8203 34.3997ZM28.0938 31.067C29.8214 32.8 30.5503 33.4932 30.8203 33.7598C35.3555 29.4939 39.7557 25.1214 39.7827 22.1086C39.8096 21.4154 39.5397 20.7222 39.0808 20.189L28.0938 31.067Z" fill="#FF6C37"/>
<path d="M24.3954 27.8142L26.69 30.0805C26.744 30.1338 26.744 30.1871 26.69 30.2405C26.663 30.2671 26.663 30.2671 26.636 30.2671L21.8849 31.2803C21.6419 31.3069 21.426 31.147 21.372 30.907C21.345 30.7737 21.399 30.6404 21.48 30.5604L24.2335 27.8409C24.2875 27.7876 24.3684 27.7609 24.3954 27.8142Z" fill="white"/>
<path d="M21.8039 31.5469C21.399 31.5469 21.1021 31.227 21.1021 30.827C21.1021 30.6404 21.183 30.4538 21.318 30.3205L24.0715 27.601C24.2335 27.4676 24.4494 27.4676 24.6114 27.601L26.906 29.8672C27.068 30.0005 27.068 30.2405 26.906 30.4005C26.852 30.4538 26.798 30.4804 26.717 30.5071L21.9659 31.5203C21.9119 31.5203 21.8579 31.5469 21.8039 31.5469ZM24.3145 28.1075L21.6689 30.7204C21.615 30.7737 21.588 30.8537 21.642 30.9337C21.6689 31.0137 21.7499 31.0403 21.8309 31.0137L26.2851 30.0539L24.3145 28.1075Z" fill="#FF6C37"/>
<path d="M44.9657 13.4167C43.238 11.7637 40.4575 11.817 38.7838 13.55C37.1101 15.2831 37.1641 18.0026 38.9188 19.6556C40.3495 21.0154 42.5092 21.2553 44.2099 20.2422L41.1324 17.2027L44.9657 13.4167Z" fill="white"/>
<path d="M41.9423 21.1221C39.3778 21.1221 37.2991 19.0692 37.2991 16.5363C37.2991 14.0034 39.3778 11.9504 41.9423 11.9504C43.1301 11.9504 44.2909 12.4037 45.1547 13.2302C45.2087 13.2835 45.2357 13.3369 45.2357 13.4168C45.2357 13.4968 45.2087 13.5502 45.1547 13.6035L41.5104 17.2028L44.3719 20.029C44.4798 20.1356 44.4798 20.2956 44.3719 20.4023C44.3449 20.4289 44.3449 20.4289 44.3179 20.4556C43.616 20.8822 42.7791 21.1221 41.9423 21.1221ZM41.9423 12.5103C39.6747 12.5103 37.839 14.3233 37.866 16.5629C37.866 18.8025 39.7017 20.6155 41.9693 20.5889C42.5902 20.5889 43.2111 20.4556 43.778 20.1623L40.9435 17.3895C40.8895 17.3361 40.8625 17.2828 40.8625 17.2028C40.8625 17.1228 40.8895 17.0695 40.9435 17.0162L44.5608 13.4435C43.832 12.8303 42.9141 12.5103 41.9423 12.5103Z" fill="#FF6C37"/>
<path d="M45.0467 13.4969L44.9927 13.4436L41.1324 17.2029L44.1829 20.2157C44.4798 20.0291 44.7768 19.8158 45.0197 19.5758C46.7474 17.8961 46.7474 15.1766 45.0467 13.4969Z" fill="white"/>
<path d="M44.2099 20.5088C44.1289 20.5088 44.0749 20.4822 44.0209 20.4288L40.9434 17.3894C40.8895 17.3361 40.8625 17.2827 40.8625 17.2028C40.8625 17.1228 40.8895 17.0694 40.9434 17.0161L44.7768 13.2301C44.8847 13.1235 45.0467 13.1235 45.1547 13.2301L45.2357 13.2835C47.0443 15.0698 47.0443 17.9493 45.2627 19.7623C44.9927 20.0289 44.6958 20.2689 44.3718 20.4555C44.2908 20.4822 44.2368 20.5088 44.2099 20.5088ZM41.5103 17.2028L44.2368 19.8956C44.4528 19.7623 44.6688 19.5757 44.8307 19.4157C46.3695 17.896 46.4504 15.4164 44.9657 13.8167L41.5103 17.2028Z" fill="#FF6C37"/>
<path d="M39.4047 20.1357C38.7569 19.4958 37.704 19.4958 37.0562 20.1357L26.879 30.1872L28.5797 31.8669L39.3508 22.5352C40.0526 21.9487 40.1066 20.9089 39.5127 20.2157C39.4587 20.189 39.4317 20.1623 39.4047 20.1357Z" fill="white"/>
<path d="M28.5527 32.1335C28.4717 32.1335 28.4177 32.1069 28.3637 32.0535L26.663 30.3738C26.5551 30.2672 26.5551 30.1072 26.663 30.0006L36.8402 19.9491C37.5961 19.2025 38.8109 19.2025 39.5667 19.9491C40.3226 20.6956 40.3226 21.8954 39.5667 22.6419C39.5397 22.6686 39.5127 22.6952 39.4857 22.7219L28.7147 32.0535C28.6877 32.1069 28.6337 32.1335 28.5527 32.1335ZM27.2569 30.1872L28.5797 31.4936L39.1618 22.322C39.7557 21.8421 39.8097 20.9622 39.3238 20.3756C38.8379 19.7891 37.947 19.7358 37.3531 20.2157C37.3261 20.2423 37.2991 20.269 37.2451 20.2957L27.2569 30.1872Z" fill="#FF6C37"/>
<path d="M19.0774 41.625C18.9694 41.6783 18.9154 41.785 18.9424 41.8916L19.4013 43.8113C19.5093 44.0779 19.3473 44.3978 19.0504 44.4778C18.8344 44.5578 18.5915 44.4778 18.4565 44.3178L15.487 41.4117L25.1783 31.8401L28.5257 31.8934L30.7933 34.133C30.2534 34.5863 26.987 37.7057 19.0774 41.625Z" fill="white"/>
<path d="M18.8614 44.7444C18.6455 44.7444 18.4295 44.6645 18.2945 44.5045L15.3521 41.5983C15.2981 41.545 15.2711 41.4917 15.2711 41.4117C15.2711 41.3317 15.2981 41.2784 15.3521 41.2251L25.0433 31.6535C25.0973 31.6001 25.1783 31.5735 25.2323 31.5735L28.5797 31.6268C28.6607 31.6268 28.7147 31.6535 28.7687 31.7068L31.0363 33.9464C31.0902 33.9997 31.1172 34.0797 31.1172 34.1597C31.1172 34.2397 31.0902 34.293 31.0093 34.3463L30.8203 34.5063C27.9588 36.9858 24.0715 39.4654 19.2394 41.8383L19.6983 43.7313C19.7793 44.0779 19.6173 44.4512 19.2934 44.6378C19.1314 44.7178 18.9964 44.7444 18.8614 44.7444ZM15.892 41.4117L18.6725 44.1312C18.7535 44.2645 18.9154 44.3179 19.0504 44.2379C19.1854 44.1579 19.2394 43.9979 19.1584 43.8646L18.6995 41.945C18.6455 41.705 18.7535 41.4917 18.9694 41.3851C23.7476 39.0121 27.6079 36.5593 30.4424 34.133L28.4447 32.16L25.3403 32.1067L15.892 41.4117Z" fill="#FF6C37"/>
<path d="M13.1925 43.7048L15.514 41.4119L18.9694 44.8246L13.4624 44.4513C13.2195 44.4247 13.0575 44.2114 13.0845 43.9714C13.0845 43.8648 13.1115 43.7581 13.1925 43.7048Z" fill="white"/>
<path d="M18.9694 45.0644L13.4354 44.6911C13.0305 44.6644 12.7605 44.3178 12.7875 43.9179C12.8145 43.7579 12.8685 43.598 13.0035 43.4913L15.3251 41.1984C15.4331 41.0917 15.595 41.0917 15.703 41.1984L19.1584 44.6111C19.2394 44.6911 19.2664 44.7977 19.2124 44.9044C19.1584 45.011 19.0774 45.0644 18.9694 45.0644ZM15.514 41.785L13.3814 43.8912C13.3004 43.9446 13.3004 44.0779 13.3814 44.1312C13.4084 44.1579 13.4354 44.1845 13.4894 44.1845L18.2675 44.5045L15.514 41.785Z" fill="#FF6C37"/>
<path d="M24.2335 33.0667C24.0715 33.0667 23.9635 32.9334 23.9635 32.8001C23.9635 32.7201 23.9905 32.6668 24.0445 32.6135L26.663 30.0273C26.771 29.9206 26.933 29.9206 27.0409 30.0273L28.7416 31.7069C28.8226 31.7869 28.8496 31.8669 28.8226 31.9736C28.7956 32.0536 28.7146 32.1335 28.6067 32.1602L24.2874 33.0667C24.2604 33.0667 24.2335 33.0667 24.2335 33.0667ZM26.852 30.5872L25.0703 32.3468L27.9858 31.7336L26.852 30.5872Z" fill="#FF6C37"/>
<path d="M28.5257 31.8935L25.5562 32.5334C25.3403 32.5867 25.1243 32.4534 25.0703 32.2401C25.0433 32.1068 25.0703 31.9735 25.1783 31.8669L26.825 30.2405L28.5257 31.8935Z" fill="white"/>
<path d="M25.5022 32.8001C25.1243 32.8001 24.8274 32.5068 24.8274 32.1335C24.8274 31.9469 24.9083 31.7869 25.0163 31.6536L26.663 30.0273C26.771 29.9206 26.933 29.9206 27.041 30.0273L28.7417 31.7069C28.8226 31.7869 28.8496 31.8669 28.8226 31.9736C28.7956 32.0536 28.7147 32.1335 28.6067 32.1602L25.6372 32.8001C25.5832 32.8001 25.5292 32.8001 25.5022 32.8001ZM26.852 30.5872L25.3943 32.0269C25.3403 32.0802 25.3403 32.1335 25.3673 32.1869C25.3943 32.2402 25.4483 32.2668 25.5292 32.2668L28.0128 31.7336L26.852 30.5872Z" fill="#FF6C37"/>
<path d="M45.0737 16.0564C45.0197 15.8964 44.8308 15.8164 44.6688 15.8697C44.5068 15.923 44.4258 16.1097 44.4798 16.2697C44.4798 16.2963 44.5068 16.323 44.5068 16.3496C44.6688 16.6696 44.6148 17.0695 44.3988 17.3628C44.2909 17.4961 44.3179 17.6827 44.4258 17.7894C44.5608 17.896 44.7498 17.8694 44.8578 17.7361C45.2627 17.2295 45.3437 16.5896 45.0737 16.0564Z" fill="#FF6C37"/>
</g>
<defs>
<clipPath id="clip0_80_258">
<rect width="54" height="55" fill="white" transform="translate(2.20059 1.70068)"/>
</clipPath>
</defs>
</svg>
