<svg width="59" height="59" viewBox="0 0 59 59" fill="none" xmlns="http://www.w3.org/2000/svg">
<rect width="58.4012" height="58.4012" rx="29.2006" fill="white"/>
<path d="M34.2327 28.7636C34.2327 26.2473 32.114 24.207 29.5 24.207C26.8864 24.207 24.7673 26.2473 24.7673 28.7636C24.7673 31.2803 26.8864 33.3204 29.5 33.3204C32.114 33.3204 34.2327 31.2803 34.2327 28.7636Z" fill="#53C1DE"/>
<path fill-rule="evenodd" clip-rule="evenodd" d="M44.8707 20.3039C45.8701 16.3938 47.1264 9.14277 42.6977 6.68445C38.2897 4.23685 32.5535 8.9269 29.5246 11.7421C26.5044 8.95495 20.6071 4.28495 16.1822 6.75108C11.7759 9.20689 13.1347 16.3377 14.1563 20.2723C10.046 21.3963 3 23.8172 3 28.7634C3 33.6956 10.0387 36.3295 14.1247 37.4524C13.0993 41.4089 11.8085 48.4378 16.2204 50.8882C20.6619 53.3538 26.5408 48.7949 29.5979 45.949C32.6463 48.7807 38.3273 53.3694 42.7362 50.9122C47.1589 48.4472 46.007 41.2934 44.9854 37.3359C48.9462 36.2106 56 33.634 56 28.7634C56 23.8648 48.9162 21.4242 44.8707 20.3039ZM44.3686 35.2387C43.6978 33.1942 42.7924 31.0202 41.6849 28.7743C42.7421 26.5815 43.6123 24.4354 44.2644 22.4042C47.2301 23.232 53.736 25.124 53.736 28.7634C53.736 32.4371 47.4928 34.347 44.3686 35.2387ZM41.6017 49.0256C38.3121 50.8589 33.4257 46.4707 31.1744 44.3854C32.668 42.8126 34.1605 40.9843 35.6171 38.9541C38.1795 38.7353 40.6 38.3775 42.7952 37.8889C43.5143 40.6882 44.9057 47.1841 41.6017 49.0256ZM17.3517 48.9995C14.0619 47.1731 15.5656 40.9008 16.3199 37.9864C18.4907 38.4489 20.8939 38.7815 23.4622 38.982C24.9284 40.9685 26.4642 42.7946 28.0118 44.3938C26.0997 46.1746 20.6569 50.8343 17.3517 48.9995ZM5.26397 28.7634C5.26397 25.0761 11.731 23.1978 14.7643 22.3721C15.4276 24.449 16.2976 26.6206 17.3475 28.8166C16.284 31.0452 15.4016 33.2513 14.7322 35.3527C11.8399 34.5556 5.26397 32.4531 5.26397 28.7634ZM17.3165 8.63764C20.6198 6.79672 25.7453 11.2801 27.9381 13.2981C26.3984 14.8899 24.8768 16.7022 23.4232 18.6773C20.9306 18.8998 18.5445 19.257 16.3509 19.7355C15.5279 16.562 14.0168 10.4766 17.3165 8.63764ZM37.2368 21.0467C38.9278 21.2521 40.548 21.5254 42.0693 21.8598C41.6126 23.2692 41.0434 24.743 40.3729 26.2538C39.4011 24.4784 38.3579 22.7387 37.2368 21.0467ZM29.5253 14.8558C30.5695 15.945 31.6154 17.1613 32.6443 18.4809C30.5574 18.3858 28.467 18.3854 26.3801 18.4795C27.4099 17.1721 28.4647 15.9576 29.5253 14.8558ZM18.6465 26.2522C17.9871 24.7467 17.423 23.2664 16.9624 21.8368C18.4746 21.511 20.0872 21.2447 21.7673 21.0427C20.643 22.731 19.6015 24.47 18.6465 26.2522ZM21.8155 36.6398C20.08 36.4534 18.4429 36.2006 16.9312 35.8837C17.3991 34.4291 17.9756 32.9169 18.6491 31.3789C19.6173 33.1797 20.6746 34.9355 21.8155 36.6398ZM29.588 42.8251C28.5149 41.7103 27.4445 40.4772 26.3991 39.1509C28.4979 39.2302 30.6008 39.2304 32.6994 39.1402C31.6673 40.4907 30.6252 41.7255 29.588 42.8251ZM40.3945 31.3007C41.1029 32.8553 41.7001 34.3593 42.1744 35.7894C40.6376 36.1271 38.9785 36.399 37.2304 36.6009C38.3598 34.8768 39.4197 33.11 40.3945 31.3007ZM34.3536 36.8651C31.1432 37.086 27.9128 37.0835 24.7014 36.8832C22.8766 34.3168 21.2521 31.6178 19.8499 28.8159C21.2454 26.0197 22.858 23.326 24.6742 20.7637C27.8879 20.5299 31.1214 20.5292 34.3352 20.7651C36.1358 23.3273 37.7459 26.014 39.1737 28.7848C37.7629 31.5796 36.1418 34.2787 34.3536 36.8651ZM41.5669 8.57283C44.8711 10.4077 43.4003 16.9244 42.6784 19.7582C40.4797 19.2696 38.0918 18.9061 35.592 18.6802C34.1356 16.6837 32.6266 14.8682 31.1119 13.2969C33.3328 11.2355 38.2946 6.7559 41.5669 8.57283Z" fill="#53C1DE"/>
</svg>
