<svg width="59" height="59" viewBox="0 0 59 59" fill="none" xmlns="http://www.w3.org/2000/svg">
<rect width="58.4012" height="58.4012" rx="29.2006" fill="white"/>
<path d="M37.3924 37.0657C38.9596 36.9062 40.1486 35.578 40.0945 33.9839C40.0406 32.39 38.6894 31.1148 37.0681 31.1148H36.9601C35.2846 31.168 33.9877 32.5494 34.0418 34.1964C34.0958 34.9935 34.42 35.6842 34.9064 36.1623C33.069 39.7223 30.2588 42.3258 26.0435 44.5042C23.1792 45.9919 20.2069 46.5233 17.2346 46.1514C14.8027 45.8326 12.9112 44.77 11.722 43.0165C9.99279 40.413 9.83072 37.5969 11.2899 34.781C12.3168 32.7619 13.9379 31.2741 14.9647 30.5303C14.7486 29.8396 14.4243 28.6707 14.2622 27.8207C6.42596 33.3996 7.23667 40.9444 9.61456 44.5042C11.3979 47.161 15.0188 48.808 19.018 48.808C20.0987 48.808 21.1795 48.7017 22.2605 48.4362C29.178 47.1078 34.4201 43.0696 37.3924 37.0657V37.0657ZM46.904 30.4773C42.7967 25.7484 36.744 23.145 29.8264 23.145H28.9618C28.4754 22.1886 27.4486 21.5509 26.3137 21.5509H26.2055C24.5304 21.6041 23.2334 22.9855 23.2873 24.6327C23.3414 26.2266 24.6924 27.5018 26.3137 27.5018H26.4217C27.6106 27.4486 28.6375 26.7048 29.0698 25.6952H30.0426C34.1499 25.6952 38.0409 26.8641 41.5538 29.1489C44.2559 30.9023 46.2014 33.1871 47.2822 35.9498C48.2009 38.1814 48.1468 40.3599 47.1741 42.2196C45.661 45.0356 43.121 46.5765 39.7703 46.5765C37.6086 46.5765 35.555 45.9388 34.4741 45.4606C33.8797 45.9919 32.7987 46.842 32.0421 47.3735C34.3661 48.436 36.744 49.0206 39.0137 49.0206C44.2018 49.0206 48.0388 46.2044 49.498 43.3885C51.0652 40.3067 50.957 34.9935 46.904 30.4773V30.4773ZM19.4503 37.9688C19.5043 39.5628 20.8554 40.8379 22.4766 40.8379H22.5848C24.2601 40.7849 25.5571 39.4033 25.503 37.7562C25.4491 36.1622 24.0979 34.8871 22.4766 34.8871H22.3686C22.2605 34.8871 22.0982 34.8871 21.9904 34.9401C19.7746 31.3271 18.8559 27.3955 19.1802 23.1448C19.3962 19.9568 20.4771 17.1939 22.3686 14.9091C23.9358 12.9432 26.9622 11.9868 29.0159 11.9338C34.7443 11.8275 37.1761 18.8409 37.3383 21.6571C38.0409 21.8164 39.2298 22.1884 40.0406 22.4541C39.3919 13.8467 33.9877 9.38354 28.7997 9.38354C23.9358 9.38354 19.4503 12.8372 17.6668 17.9379C15.1809 24.7389 16.8021 31.2741 19.8285 36.428C19.5584 36.7999 19.3962 37.3844 19.4503 37.9689V37.9688Z" fill="#764ABC"/>
</svg>
