<svg width="59" height="59" viewBox="0 0 59 59" fill="none" xmlns="http://www.w3.org/2000/svg">
<rect width="58.4012" height="58.4012" rx="29.2006" fill="white"/>
<path d="M17.5573 24.1557C19.0983 18.0519 22.9508 15 29.1147 15C38.3606 15 39.5163 21.8667 44.1392 23.0112C47.2212 23.7742 49.9179 22.6297 52.2294 19.5778C50.6884 25.6816 46.8359 28.7335 40.672 28.7335C31.4262 28.7335 30.2704 21.8667 25.6475 20.7223C22.5655 19.9593 19.8688 21.1038 17.5573 24.1557ZM6 37.8891C7.54098 31.7854 11.3934 28.7335 17.5573 28.7335C26.8032 28.7335 27.959 35.6002 32.5819 36.7447C35.6638 37.5076 38.3606 36.3632 40.672 33.3113C39.1311 39.4151 35.2786 42.467 29.1147 42.467C19.8688 42.467 18.7131 35.6002 14.0901 34.4558C11.0082 33.6928 8.31147 34.8372 6 37.8891Z" fill="#44A8B3"/>
</svg>
