<svg width="59" height="59" viewBox="0 0 59 59" fill="none" xmlns="http://www.w3.org/2000/svg">
<rect width="58.4012" height="58.4012" rx="29.2006" fill="white"/>
<path d="M9.18294 23.9918C9.18294 23.9918 8.17881 23.3898 9.3853 22.587L12.1943 20.5004C12.1943 20.5004 12.9991 19.7973 13.8493 20.4103L39.7819 36.7114V44.5284C39.7819 44.5284 39.769 45.756 37.8722 45.6209L9.18294 23.9918Z" fill="#2489CA"/>
<path d="M15.8682 29.0298L9.18293 34.0752C9.18293 34.0752 8.49626 34.4992 9.18293 35.2581L12.2866 37.601C12.2866 37.601 13.0236 38.2591 14.1137 37.5109L21.199 33.0493L15.8682 29.0298Z" fill="#1070B3"/>
<path d="M27.603 29.0717L39.8612 21.3001L39.782 13.5251C39.782 13.5251 39.2585 11.8282 37.512 12.7121L21.199 25.0382L27.603 29.0717Z" fill="#0877B9"/>
<path d="M37.8719 45.6304C38.5834 46.2357 39.4466 46.0371 39.4466 46.0371L48.9993 42.1294C50.2223 41.437 50.0512 40.5784 50.0512 40.5784V17.2387C50.0512 16.2125 48.7866 15.8583 48.7866 15.8583L40.5064 12.5444C38.6975 11.616 37.512 12.712 37.512 12.712C37.512 12.712 39.0356 11.8006 39.782 13.5253V44.3858C39.782 44.5982 39.7276 44.8062 39.6187 44.9941C39.4011 45.3601 38.9268 45.7002 37.7929 45.5576L37.8719 45.6304Z" fill="#3C99D4"/>
</svg>
