<svg width="59" height="59" viewBox="0 0 59 59" fill="none" xmlns="http://www.w3.org/2000/svg">
<rect x="0.598846" width="58.4012" height="58.4012" rx="29.2006" fill="white"/>
<path fill-rule="evenodd" clip-rule="evenodd" d="M29.1915 12.4258C20.2516 12.4258 13.0246 19.7061 13.0246 28.7128C13.0246 35.9123 17.6552 42.0066 24.0791 44.1635C24.8822 44.3257 25.1764 43.8131 25.1764 43.3819C25.1764 43.0043 25.15 41.7101 25.15 40.3616C20.6527 41.3325 19.7162 38.4201 19.7162 38.4201C18.9935 36.5325 17.9226 36.0473 17.9226 36.0473C16.4507 35.0496 18.0298 35.0496 18.0298 35.0496C19.6626 35.1575 20.5194 36.7214 20.5194 36.7214C21.9645 39.202 24.2932 38.5011 25.23 38.0696C25.3637 37.0179 25.7923 36.2899 26.2473 35.8855C22.6604 35.5079 18.8866 34.1058 18.8866 27.8497C18.8866 26.07 19.5286 24.614 20.5458 23.4816C20.3853 23.0772 19.8231 21.405 20.7067 19.167C20.7067 19.167 22.0717 18.7355 25.1496 20.8388C26.4674 20.4823 27.8264 20.3009 29.1915 20.2994C30.5566 20.2994 31.9481 20.4884 33.2331 20.8388C36.3113 18.7355 37.6764 19.167 37.6764 19.167C38.5599 21.405 37.9973 23.0772 37.8368 23.4816C38.8809 24.614 39.4964 26.07 39.4964 27.8497C39.4964 34.1058 35.7226 35.4808 32.1089 35.8855C32.698 36.3978 33.2063 37.3684 33.2063 38.9055C33.2063 41.0896 33.1798 42.8425 33.1798 43.3816C33.1798 43.8131 33.4743 44.3257 34.2771 44.1639C40.701 42.0063 45.3316 35.9123 45.3316 28.7128C45.3581 19.7061 38.1046 12.4258 29.1915 12.4258Z" fill="black"/>
</svg>
