<svg width="59" height="59" viewBox="0 0 59 59" fill="none" xmlns="http://www.w3.org/2000/svg">
<rect width="58.4012" height="58.4012" rx="29.2006" fill="white"/>
<g clip-path="url(#clip0_68_174)">
<path d="M29.2006 13.1735C34.4233 13.1735 35.0418 13.1964 37.0958 13.288C39.0047 13.372 40.0355 13.6927 40.7227 13.9599C41.6313 14.3112 42.288 14.7388 42.9676 15.4183C43.6548 16.1055 44.0747 16.7546 44.426 17.6632C44.6932 18.3504 45.0139 19.3888 45.0979 21.2901C45.1895 23.3517 45.2124 23.9702 45.2124 29.1853C45.2124 34.4081 45.1895 35.0266 45.0979 37.0805C45.0139 38.9894 44.6932 40.0202 44.426 40.7074C44.0747 41.6161 43.6471 42.2727 42.9676 42.9523C42.2804 43.6395 41.6313 44.0595 40.7227 44.4107C40.0355 44.678 38.9971 44.9986 37.0958 45.0826C35.0342 45.1743 34.4157 45.1972 29.2006 45.1972C23.9778 45.1972 23.3594 45.1743 21.3054 45.0826C19.3965 44.9986 18.3657 44.678 17.6785 44.4107C16.7698 44.0595 16.1132 43.6319 15.4336 42.9523C14.7464 42.2651 14.3264 41.6161 13.9752 40.7074C13.7079 40.0202 13.3873 38.9818 13.3033 37.0805C13.2116 35.0189 13.1887 34.4004 13.1887 29.1853C13.1887 23.9626 13.2116 23.3441 13.3033 21.2901C13.3873 19.3812 13.7079 18.3504 13.9752 17.6632C14.3264 16.7546 14.754 16.0979 15.4336 15.4183C16.1208 14.7311 16.7698 14.3112 17.6785 13.9599C18.3657 13.6927 19.4041 13.372 21.3054 13.288C23.3594 13.1964 23.9778 13.1735 29.2006 13.1735ZM29.2006 9.65344C23.8938 9.65344 23.2295 9.67635 21.145 9.76798C19.0681 9.8596 17.6403 10.1956 16.4033 10.6766C15.1129 11.1806 14.021 11.8449 12.9368 12.9368C11.8449 14.021 11.1806 15.1129 10.6766 16.3957C10.1956 17.6403 9.8596 19.0605 9.76798 21.1374C9.67635 23.2295 9.65344 23.8938 9.65344 29.2006C9.65344 34.5073 9.67635 35.1716 9.76798 37.2561C9.8596 39.333 10.1956 40.7609 10.6766 41.9979C11.1806 43.2883 11.8449 44.3802 12.9368 45.4644C14.021 46.5487 15.1129 47.2206 16.3957 47.7169C17.6403 48.198 19.0605 48.5339 21.1374 48.6256C23.2219 48.7172 23.8862 48.7401 29.1929 48.7401C34.4997 48.7401 35.164 48.7172 37.2485 48.6256C39.3254 48.5339 40.7533 48.198 41.9902 47.7169C43.273 47.2206 44.3649 46.5487 45.4491 45.4644C46.5334 44.3802 47.2053 43.2883 47.7017 42.0055C48.1827 40.7609 48.5187 39.3407 48.6103 37.2638C48.7019 35.1793 48.7248 34.515 48.7248 29.2082C48.7248 23.9015 48.7019 23.2372 48.6103 21.1527C48.5187 19.0758 48.1827 17.6479 47.7017 16.411C47.2206 15.1129 46.5563 14.021 45.4644 12.9368C44.3802 11.8525 43.2883 11.1806 42.0055 10.6842C40.7609 10.2032 39.3407 9.86724 37.2638 9.77561C35.1716 9.67635 34.5073 9.65344 29.2006 9.65344Z" fill="black"/>
<path d="M29.2006 19.1598C23.6571 19.1598 19.1598 23.6571 19.1598 29.2006C19.1598 34.744 23.6571 39.2414 29.2006 39.2414C34.744 39.2414 39.2414 34.744 39.2414 29.2006C39.2414 23.6571 34.744 19.1598 29.2006 19.1598ZM29.2006 35.7137C25.6042 35.7137 22.6874 32.7969 22.6874 29.2006C22.6874 25.6042 25.6042 22.6874 29.2006 22.6874C32.7969 22.6874 35.7137 25.6042 35.7137 29.2006C35.7137 32.7969 32.7969 35.7137 29.2006 35.7137Z" fill="black"/>
<path d="M41.9826 18.7627C41.9826 20.0608 40.9289 21.1069 39.6385 21.1069C38.3404 21.1069 37.2943 20.0532 37.2943 18.7627C37.2943 17.4647 38.348 16.4186 39.6385 16.4186C40.9289 16.4186 41.9826 17.4723 41.9826 18.7627Z" fill="black"/>
</g>
<defs>
<clipPath id="clip0_68_174">
<rect width="39.0943" height="39.0943" fill="white" transform="translate(9.65344 9.65344)"/>
</clipPath>
</defs>
</svg>
