<svg width="59" height="59" viewBox="0 0 59 59" fill="none" xmlns="http://www.w3.org/2000/svg">
<rect width="58.4012" height="58.4012" rx="29.2006" fill="white"/>
<g clip-path="url(#clip0_4_220)">
<path d="M41.7605 14.4651H16.6406C16.0636 14.4651 15.5103 14.6943 15.1023 15.1023C14.6943 15.5103 14.4651 16.0636 14.4651 16.6406V41.7605C14.4651 42.3375 14.6943 42.8909 15.1023 43.2989C15.5103 43.7069 16.0636 43.9361 16.6406 43.9361H41.7605C42.3375 43.9361 42.8909 43.7069 43.2988 43.2989C43.7068 42.8909 43.936 42.3375 43.936 41.7605V16.6406C43.936 16.0636 43.7068 15.5103 43.2988 15.1023C42.8909 14.6943 42.3375 14.4651 41.7605 14.4651ZM23.2491 39.5707H18.8182V25.4962H23.2491V39.5707ZM21.0306 23.5458C20.528 23.543 20.0375 23.3914 19.621 23.11C19.2045 22.8287 18.8806 22.4303 18.6903 21.9651C18.5 21.4999 18.4518 20.9887 18.5518 20.4962C18.6517 20.0036 18.8953 19.5516 19.2519 19.1974C19.6084 18.8431 20.0619 18.6024 20.5551 18.5056C21.0483 18.4089 21.5591 18.4604 22.0231 18.6536C22.4871 18.8469 22.8834 19.1733 23.162 19.5916C23.4407 20.0099 23.5892 20.5014 23.5888 21.004C23.5935 21.3405 23.5305 21.6745 23.4034 21.9861C23.2763 22.2977 23.0878 22.5805 22.849 22.8177C22.6103 23.0549 22.3263 23.2417 22.0139 23.3667C21.7014 23.4918 21.367 23.5527 21.0306 23.5458ZM39.5809 39.583H35.1521V31.8939C35.1521 29.6263 34.1881 28.9263 32.9438 28.9263C31.6299 28.9263 30.3405 29.9169 30.3405 31.9512V39.583H25.9096V25.5065H30.1707V27.4569H30.228C30.6557 26.5912 32.1538 25.1115 34.4398 25.1115C36.9121 25.1115 39.5829 26.5789 39.5829 30.8767L39.5809 39.583Z" fill="black"/>
</g>
<defs>
<clipPath id="clip0_4_220">
<rect width="29.471" height="29.471" fill="white" transform="translate(14.4651 14.4651)"/>
</clipPath>
</defs>
</svg>
