<svg width="59" height="59" viewBox="0 0 59 59" fill="none" xmlns="http://www.w3.org/2000/svg">
<rect width="58.4012" height="58.4012" rx="29.2006" fill="white"/>
<path d="M48.6016 21.0001C48.6016 21.0001 48.2109 18.2423 47.0078 17.0313C45.4844 15.4376 43.7813 15.4298 43 15.336C37.4063 14.9298 29.0078 14.9298 29.0078 14.9298H28.9922C28.9922 14.9298 20.5937 14.9298 15 15.336C14.2188 15.4298 12.5156 15.4376 10.9922 17.0313C9.78906 18.2423 9.40625 21.0001 9.40625 21.0001C9.40625 21.0001 9 24.2423 9 27.4767V30.5079C9 33.7423 9.39844 36.9845 9.39844 36.9845C9.39844 36.9845 9.78906 39.7423 10.9844 40.9532C12.5078 42.547 14.5078 42.4923 15.3984 42.6642C18.6016 42.9688 29 43.0626 29 43.0626C29 43.0626 37.4063 43.047 43 42.6485C43.7813 42.5548 45.4844 42.547 47.0078 40.9532C48.2109 39.7423 48.6016 36.9845 48.6016 36.9845C48.6016 36.9845 49 33.7501 49 30.5079V27.4767C49 24.2423 48.6016 21.0001 48.6016 21.0001ZM24.8672 34.1876V22.9454L35.6719 28.586L24.8672 34.1876Z" fill="black"/>
</svg>
