<svg xmlns="http://www.w3.org/2000/svg" width="512" height="512" viewBox="0 0 512 512" version="1.1"><path d="M 214.806 386.040 C 211.328 389.518, 211.422 393.866, 215.052 397.497 C 218.178 400.622, 293.822 400.622, 296.948 397.497 C 300.578 393.866, 300.672 389.518, 297.194 386.040 L 294.154 383 256 383 L 217.846 383 214.806 386.040" stroke="none" fill="#e9a761" fill-rule="evenodd"/><path d="M 326.080 378.025 C 321.644 403.129, 305.459 428.591, 285.090 442.508 C 278.696 446.878, 278.219 447.447, 279.073 449.692 C 284.069 462.834, 271.001 480, 256 480 C 247.230 480, 235.163 471.570, 233.573 464.333 L 232.906 461.295 222.203 460.675 C 209.774 459.955, 201.592 458.195, 190.678 453.894 C 180.945 450.058, 180.918 450.094, 186.823 459.098 C 208.948 492.838, 252.839 505.756, 289.804 489.408 C 296.470 486.460, 297.993 486.420, 301.407 489.105 L 304.083 491.211 307.966 488.641 C 317.128 482.578, 318.982 480.272, 317.341 476.982 C 315.462 473.215, 315.996 471.642, 321.617 464.404 C 340.362 440.263, 344.098 406.220, 331.058 378.362 L 327.401 370.550 326.080 378.025" stroke="none" fill="#f3d332" fill-rule="evenodd"/><path d="M 243.250 118.148 L 232 125.229 232 148.936 L 232 172.644 238.069 179.572 C 247.955 190.858, 247.968 191.879, 238.371 202.650 L 232 209.799 232 221.900 L 232 234 256 234 L 280 234 280 179.611 L 280 125.221 268.609 118.111 C 254.863 109.530, 256.948 109.527, 243.250 118.148 M 194.844 357.883 C 173.292 381.266, 167.239 414.935, 179.239 444.680 C 182.598 453.007, 199.820 459.454, 222.102 460.726 L 231.704 461.275 232.220 454.842 C 234.122 431.153, 263.083 423.514, 276.279 443.220 L 278.770 446.941 285.693 442.079 C 305.892 427.894, 321.682 402.924, 326.034 378.282 C 327.522 369.860, 326.465 367.553, 316.173 356.750 L 310.696 351 255.941 351 L 201.187 351 194.844 357.883 M 215.500 367.909 C 192.869 373.618, 190.249 404.685, 211.645 413.625 C 217.371 416.018, 296.205 415.557, 301.500 413.100 C 319.654 404.677, 319.662 379.370, 301.513 369.649 C 297.310 367.398, 223.449 365.903, 215.500 367.909" stroke="none" fill="#f7e365" fill-rule="evenodd"/><path d="M 238.281 16.250 C 237.751 16.938, 235.624 29.650, 233.555 44.500 C 228.370 81.712, 228.530 81.432, 209.582 86.455 C 192.715 90.925, 192.333 90.690, 169.979 62.059 C 160.478 49.891, 152.338 39.709, 151.889 39.431 C 151.106 38.948, 121.466 55.430, 120.614 56.823 C 120.386 57.195, 125.083 69.650, 131.052 84.500 C 144.832 118.783, 144.833 118.997, 131.326 132.146 C 118.337 144.791, 118.613 144.798, 84.504 131.059 C 69.657 125.079, 57.214 120.368, 56.854 120.590 C 55.417 121.478, 38.911 151.047, 39.406 151.847 C 39.697 152.319, 49.891 160.478, 62.059 169.979 C 90.690 192.333, 90.925 192.715, 86.455 209.582 C 81.432 228.530, 81.712 228.370, 44.500 233.555 C 11.626 238.135, 15 235.568, 15 256 C 15 276.128, 13.166 274.109, 34 276.921 C 43.075 278.147, 51.235 279.354, 52.133 279.605 C 53.343 279.942, 53.934 279.163, 54.415 276.600 C 58.682 253.856, 85.244 234.082, 111.614 234.017 L 118.728 234 119.317 229.750 C 122.539 206.502, 138.549 176.140, 146.988 177.272 C 151.693 177.903, 162.774 166.552, 161.409 162.500 C 160.020 158.376, 160.721 154.900, 163.534 151.965 C 171.399 143.755, 197.168 128.571, 210.214 124.459 C 214.820 123.007, 215.893 122.154, 218.161 118.140 C 232.922 92.014, 279.937 91.999, 293.775 118.115 C 295.816 121.968, 296.797 122.680, 303.354 125.071 C 348.347 141.475, 386.673 186.386, 392.683 229.750 L 393.272 234 400.386 234.044 C 404.299 234.068, 409.378 234.451, 411.673 234.895 L 415.846 235.703 416.875 229.602 C 421.915 199.703, 421.468 165.441, 415.724 141.369 L 414.500 136.237 407.500 139.090 C 395.186 144.107, 391.203 142.963, 379.647 131.088 C 367.386 118.489, 367.387 118.535, 378.656 90.369 L 387.311 68.733 385.620 65.617 C 378.286 52.100, 363.784 37.161, 360.167 39.397 C 359.687 39.693, 351.522 49.891, 342.021 62.059 C 319.667 90.690, 319.285 90.925, 302.418 86.455 C 283.470 81.432, 283.630 81.712, 278.445 44.500 C 274.562 16.629, 250.851 -0.048, 238.281 16.250 M 56 346.696 C 36.666 361.900, 38.175 359.856, 41.734 366.021 C 44.617 371.014, 56.165 380.491, 65.617 385.620 L 68.733 387.311 90.369 378.656 C 118.415 367.436, 118.498 367.437, 130.732 379.276 C 142.755 390.912, 144.033 395.247, 139.047 407.500 L 136.199 414.500 141.350 415.735 C 144.182 416.414, 148.794 417.256, 151.599 417.605 L 156.698 418.240 157.396 408.094 C 158.381 393.796, 163.523 375.211, 168.582 367.659 C 169.672 366.032, 168.941 364.988, 162.282 358.659 L 154.748 351.500 127.124 350.906 C 93.939 350.193, 87.740 348.688, 74 338.013 L 70.500 335.294 56 346.696" stroke="none" fill="#9facba" fill-rule="evenodd"/><path d="M 372.111 45.882 C 379.606 56.315, 387.017 67.786, 387.047 69 C 387.090 70.722, 392 59.282, 392 57.461 C 392 56.802, 387.212 53.492, 381.361 50.105 C 375.126 46.497, 371.297 44.748, 372.111 45.882 M 433.695 127.844 L 414.889 135.500 415.449 139 C 415.757 140.925, 416.682 146.271, 417.505 150.880 C 421.439 172.921, 421.434 201.700, 417.492 225.820 C 415.942 235.303, 416.087 237, 418.443 237 C 430.218 237, 452.099 258.956, 457.061 275.750 C 457.751 278.087, 458.688 280, 459.142 280 C 461.277 280, 495.513 274.801, 496.208 274.371 C 497.615 273.502, 497.175 238.002, 495.750 237.471 C 495.063 237.214, 481.941 235.203, 466.590 233.001 C 430.870 227.877, 431.002 227.949, 426.417 211 C 421.447 192.624, 421.244 192.967, 450.683 170.013 C 462.957 160.443, 473 152.004, 473 151.261 C 473 148.446, 455.772 119.999, 454.125 120.094 C 453.231 120.146, 444.038 123.634, 433.695 127.844 M 159.750 249.750 C 189.587 249.897, 238.412 249.897, 268.250 249.750 C 298.087 249.603, 273.675 249.482, 214 249.482 C 154.325 249.482, 129.912 249.603, 159.750 249.750 M 182.750 335.750 C 223.038 335.895, 288.963 335.895, 329.250 335.750 C 369.538 335.605, 336.575 335.487, 256 335.487 C 175.425 335.487, 142.463 335.605, 182.750 335.750 M 437 338.086 C 425.791 347.728, 415.774 349.989, 384.040 350.043 L 358.500 350.087 350.184 357.809 L 341.869 365.530 344.906 371.651 C 355.487 392.978, 357.010 421.117, 348.899 445.425 C 347.261 450.334, 346.166 454.990, 346.466 455.772 C 347.588 458.697, 359.554 472.996, 360.881 472.998 C 363.049 473.001, 392 455.852, 392 454.564 C 392 453.931, 387.347 441.957, 381.661 427.956 C 367.285 392.563, 367.306 394.131, 381.038 380.462 C 393.965 367.595, 393.496 367.586, 427.456 381.424 C 441.732 387.241, 453.939 392, 454.581 392 C 455.864 392, 473 362.919, 473 360.742 C 473 359.480, 444.479 336.447, 441.751 335.507 C 441.063 335.269, 438.925 336.430, 437 338.086 M 50.105 381.361 C 53.492 387.212, 56.802 392, 57.461 392 C 59.282 392, 70.722 387.090, 69 387.047 C 67.786 387.017, 56.315 379.606, 45.882 372.111 C 44.748 371.297, 46.497 375.126, 50.105 381.361 M 157.156 411.750 C 156.973 419.084, 157.323 418.959, 144.225 416.359 C 139.674 415.456, 135.816 414.893, 135.653 415.108 C 134.828 416.196, 119.975 453.659, 119.987 454.625 C 120.001 455.868, 149.124 473, 151.222 473 C 152.831 473, 166 456.359, 166 454.327 C 166 453.525, 165.564 452.055, 165.032 451.060 C 161.835 445.087, 158.758 430.720, 158.057 418.500 C 157.632 411.086, 157.245 408.186, 157.156 411.750 M 252.384 448.434 C 245.829 451.288, 246.165 461.468, 252.892 463.813 C 263.178 467.398, 269.427 452.583, 259.397 448.392 C 255.483 446.757, 256.248 446.753, 252.384 448.434" stroke="none" fill="#8d9ca8" fill-rule="evenodd"/><path d="M 230.503 2.297 C 223.685 6.158, 222.578 9.463, 218.544 38 C 216.562 52.025, 214.707 64.671, 214.423 66.102 C 213.984 68.311, 199.607 74.253, 198.429 72.712 C 153.168 13.521, 155.952 14.466, 111.903 43.328 C 102.048 49.785, 102.597 56.590, 115.550 88.544 L 126.108 114.588 120.359 120.336 L 114.611 126.084 88.488 115.542 C 56.474 102.623, 49.763 102.082, 43.328 111.903 C 14.466 155.952, 13.521 153.168, 72.712 198.429 C 74.253 199.607, 68.311 213.984, 66.102 214.423 C 64.671 214.707, 52.025 216.562, 38 218.544 C -0.604 224.001, 0.033 223.372, 0.033 256 C 0.033 287.847, 0.306 288.158, 32.133 292.638 L 51.764 295.402 53.342 303.411 C 54.209 307.816, 56.209 314.021, 57.784 317.200 L 60.649 322.979 44.074 335.952 C 17.266 356.935, 17.236 358.694, 42.995 399.637 C 49.499 409.975, 56.365 409.494, 88.544 396.450 L 114.588 385.892 120.336 391.641 L 126.084 397.389 115.542 423.512 C 99.392 463.531, 98.828 461.892, 135.866 482.591 C 153.657 492.534, 158.610 491.038, 173.558 471.208 C 174.403 470.087, 175.755 471.213, 180.269 476.800 C 208.058 511.194, 275.764 524.244, 302.216 500.305 C 309.913 493.339, 300.131 485.841, 289.488 490.548 C 210.342 525.550, 136.813 428.770, 190.870 360.745 C 200.298 348.880, 193.502 350, 256.088 350 C 318.682 350, 311.767 348.896, 320.872 360.339 C 345.601 391.416, 346.086 432.991, 322.099 465.387 C 316.538 472.898, 316.295 473.735, 318.460 477.923 C 320.141 481.173, 323.146 482.275, 326.672 480.935 C 328.881 480.095, 330.485 478.525, 335.860 471.940 C 337.457 469.985, 337.654 470.130, 343.327 477.389 C 353.649 490.596, 360.006 491.604, 376.134 482.591 C 413.199 461.877, 412.660 463.445, 396.450 423.456 L 385.892 397.412 391.652 391.652 L 397.412 385.892 423.456 396.450 C 455.410 409.403, 462.215 409.952, 468.672 400.097 C 482.979 378.262, 489.681 363.244, 487.964 356.868 C 486.230 350.428, 485.523 349.689, 467.931 335.935 L 451.363 322.982 454.280 316.903 C 455.885 313.559, 457.884 307.344, 458.722 303.091 L 460.245 295.358 479.696 292.713 C 502.051 289.674, 505.704 288.267, 510.113 281 L 512.843 276.500 512.921 254.583 C 512.965 242.529, 512.697 232.970, 512.326 233.341 C 511.955 233.712, 510.704 232.325, 509.546 230.260 C 505.877 223.720, 502.315 222.546, 474 218.544 C 459.975 216.562, 447.329 214.707, 445.898 214.423 C 443.689 213.984, 437.747 199.607, 439.288 198.429 C 498.541 153.121, 497.566 156, 468.623 111.828 C 462.220 102.056, 455.348 102.622, 423.456 115.550 L 397.412 126.108 391.652 120.348 L 385.892 114.588 396.450 88.544 C 409.403 56.590, 409.952 49.785, 400.097 43.328 C 356.048 14.466, 358.832 13.521, 313.571 72.712 C 312.393 74.253, 298.016 68.311, 297.577 66.102 C 297.293 64.671, 295.438 52.025, 293.456 38 C 287.999 -0.604, 288.628 0.033, 256 0.033 C 235.509 0.033, 234.312 0.139, 230.503 2.297 M 236.632 16.750 C 236.355 17.712, 234.440 30.822, 232.376 45.881 C 227.563 81.004, 227.699 80.774, 208.905 85.645 C 192.632 89.862, 193.459 90.382, 171.346 62.009 C 149.860 34.439, 153.859 36.139, 135.374 46.724 C 116.559 57.498, 117.198 52.897, 130.079 84.833 C 143.764 118.765, 143.705 117.403, 132 129.603 C 118.204 143.982, 119.304 143.971, 84.812 130.088 C 52.837 117.218, 57.490 116.573, 46.724 135.374 C 36.139 153.859, 34.439 149.860, 62.009 171.346 C 90.382 193.459, 89.862 192.632, 85.645 208.905 C 80.768 227.721, 80.966 227.604, 45.852 232.397 C 30.808 234.451, 17.713 236.357, 16.750 236.633 C 13.646 237.523, 14.126 274.770, 17.250 275.457 C 19.666 275.989, 47.993 279.958, 51.786 280.296 C 53.759 280.472, 54.375 279.611, 56.286 274 C 64.116 251.012, 83.527 236.679, 108.919 235.134 L 119.339 234.500 120.740 227.500 C 125.661 202.913, 139.250 177.130, 146.653 178.331 C 154.159 179.549, 155.046 184.422, 149.466 193.789 C 143.331 204.087, 135 226.275, 135 232.314 C 135 233.868, 138.179 234, 175.500 234 L 216 234 216 219.176 L 216 204.351 221.500 198 C 227.624 190.929, 227.677 190.802, 225.334 188.872 C 224.418 188.118, 221.943 185.322, 219.834 182.660 L 216 177.820 216 158.444 L 216 139.067 207.876 142.493 C 197.572 146.839, 188.612 152.170, 178.618 159.902 C 168.674 167.595, 164.997 167.997, 162.225 161.693 C 158.665 153.596, 180.420 136.844, 208 126.445 C 214.803 123.880, 216.776 122.667, 217.883 120.370 C 220.589 114.753, 221.173 114.294, 240.879 102.311 C 255.939 93.153, 256.923 93.248, 277 105.796 C 289.491 113.603, 291.673 115.427, 293.849 119.876 C 295.244 122.729, 296.662 123.674, 303 125.975 C 347.143 142.004, 382.225 182.358, 391.260 227.500 L 392.661 234.500 403.081 235.135 C 428.576 236.688, 447.853 250.922, 455.714 274 C 457.625 279.611, 458.241 280.472, 460.214 280.296 C 464.007 279.958, 492.334 275.989, 494.750 275.457 C 497.874 274.770, 498.354 237.524, 495.250 236.632 C 494.288 236.355, 481.178 234.440, 466.119 232.376 C 430.996 227.563, 431.226 227.699, 426.355 208.905 C 422.135 192.621, 421.619 193.441, 450.006 171.337 C 477.578 149.867, 475.894 153.833, 465.285 135.347 C 454.511 116.573, 459.168 117.216, 427.188 130.088 C 393.224 143.759, 394.592 143.700, 382.397 132 C 368.044 118.230, 368.061 119.117, 381.500 85.906 C 394.731 53.208, 395.245 57.373, 376.663 46.715 C 358.167 36.107, 362.133 34.423, 340.708 61.982 C 318.640 90.367, 319.420 89.876, 303.095 85.645 C 284.301 80.774, 284.437 81.004, 279.624 45.881 C 277.560 30.822, 275.645 17.712, 275.368 16.750 C 274.598 14.070, 237.402 14.070, 236.632 16.750 M 242.760 117.208 L 231.019 124.500 231.010 148.813 L 231 173.125 238 181.069 C 247.079 191.372, 247.089 191.269, 235.750 204.269 L 231 209.716 231 222.358 L 231 235 256 235 L 281 235 280.986 179.750 L 280.973 124.500 269.812 117.578 C 255.333 108.598, 256.595 108.615, 242.760 117.208 M 296 186.533 L 296 234 310.389 234 C 322.644 234, 325.083 234.260, 326.833 235.750 C 330.192 238.612, 330.075 243.016, 326.545 246.545 L 324.091 249 214.135 249 C 109.244 249, 103.899 249.087, 98.125 250.884 C 55.195 264.245, 57.881 325.648, 101.799 334.885 C 109.293 336.462, 402.707 336.462, 410.201 334.885 C 443.112 327.963, 456.183 287.353, 433.354 262.948 C 421.991 250.799, 415.347 249, 381.845 249 C 353.522 249, 352.670 248.848, 350.392 243.397 C 347.386 236.202, 351.049 234, 366.022 234 L 377.176 234 376.461 229.750 C 370.469 194.118, 340.330 157.763, 304.124 142.493 L 296 139.067 296 186.533 M 130.635 271.073 C 128.704 272.591, 128 274.061, 128 276.573 C 128 280.526, 128.117 280.463, 124.364 278.506 C 116.328 274.315, 110.092 283.751, 116.932 289.753 L 119.863 292.325 116.932 295.064 C 109.615 301.898, 116.621 309.785, 126.250 305.555 C 127.672 304.930, 128 305.287, 128 307.459 C 128 313.218, 132.126 316.549, 137.107 314.813 C 139.814 313.869, 142 310.358, 142 306.953 C 142 304.785, 143.042 304.442, 144.673 306.073 C 146.604 308.004, 152.152 306.702, 154.299 303.814 C 156.705 300.576, 155.431 296.104, 151.503 294.002 L 149.138 292.736 152.569 289.500 C 156.304 285.977, 156.482 285.398, 155.018 281.547 C 153.598 277.814, 149.365 276.456, 145.255 278.415 L 142 279.968 142 276.938 C 142 270.549, 135.540 267.215, 130.635 271.073 M 192.736 269.692 C 190.699 270.223, 188 274.943, 188 277.976 C 188 279.975, 187.886 279.993, 184.897 278.447 C 176.482 274.095, 170.470 285.331, 178.425 290.543 L 180.940 292.191 177.386 295.543 C 173.605 299.109, 173.456 301.472, 176.773 305.250 C 178.434 307.142, 184.474 307.661, 185.500 306 C 186.629 304.173, 188 304.966, 188 307.444 C 188 308.789, 189.038 311.095, 190.306 312.569 C 194.716 317.697, 202 314.999, 202 308.238 C 202 305.328, 202.275 304.905, 203.750 305.545 C 213.540 309.793, 221.205 300.908, 212.991 294.835 L 209.981 292.610 213.054 289.804 C 219.348 284.055, 214.004 274.720, 206.474 278.311 C 201.873 280.505, 202 280.554, 202 276.573 C 202 274.061, 201.296 272.591, 199.365 271.073 C 196.720 268.992, 195.997 268.841, 192.736 269.692 M 251.455 271.455 C 249.914 272.995, 249 275.053, 249 276.980 L 249 280.051 246.050 278.526 C 241.982 276.422, 240.305 276.604, 237.455 279.455 C 233.645 283.264, 235.093 289.497, 240.194 291.243 C 241.064 291.541, 240.416 292.710, 238.250 294.746 C 230.761 301.788, 237.440 309.802, 247.250 305.545 C 248.704 304.914, 249 305.311, 249 307.893 C 249 311.853, 252.100 315, 256 315 C 259.900 315, 263 311.853, 263 307.893 C 263 305.311, 263.296 304.914, 264.750 305.545 C 274.560 309.802, 281.239 301.788, 273.750 294.746 C 271.584 292.710, 270.936 291.541, 271.806 291.243 C 276.907 289.497, 278.355 283.264, 274.545 279.455 C 271.695 276.604, 270.018 276.422, 265.950 278.526 L 263 280.051 263 276.980 C 263 270.329, 255.953 266.956, 251.455 271.455 M 312.635 271.073 C 310.704 272.591, 310 274.061, 310 276.573 C 310 280.554, 310.127 280.505, 305.526 278.311 C 297.996 274.720, 292.652 284.055, 298.946 289.804 L 302.019 292.610 299.009 294.835 C 290.795 300.908, 298.460 309.793, 308.250 305.545 C 309.725 304.905, 310 305.328, 310 308.238 C 310 314.999, 317.284 317.697, 321.694 312.569 C 322.962 311.095, 324 308.789, 324 307.444 C 324 304.966, 325.371 304.173, 326.500 306 C 327.593 307.768, 333.579 307.123, 335.470 305.033 C 338.272 301.937, 337.727 297.970, 334.083 294.928 L 330.917 292.285 333.503 290.590 C 341.517 285.339, 335.575 274.066, 327.103 278.447 C 324.114 279.993, 324 279.975, 324 277.976 C 324 274.662, 321.278 270.307, 318.790 269.641 C 315.558 268.775, 315.555 268.776, 312.635 271.073 M 372.455 271.455 C 370.929 272.980, 370 275.055, 370 276.938 L 370 279.968 366.745 278.415 C 362.635 276.456, 358.402 277.814, 356.982 281.547 C 355.518 285.398, 355.696 285.977, 359.431 289.500 L 362.862 292.736 360.497 294.002 C 356.569 296.104, 355.295 300.576, 357.701 303.814 C 359.848 306.702, 365.396 308.004, 367.327 306.073 C 368.958 304.442, 370 304.785, 370 306.953 C 370 310.358, 372.186 313.869, 374.893 314.813 C 379.874 316.549, 384 313.218, 384 307.459 C 384 305.287, 384.328 304.930, 385.750 305.555 C 395.379 309.785, 402.385 301.898, 395.068 295.064 L 392.137 292.325 395.068 289.753 C 401.908 283.751, 395.672 274.315, 387.636 278.506 C 383.883 280.463, 384 280.526, 384 276.573 C 384 270.041, 376.980 266.929, 372.455 271.455 M 54.806 346.264 C 35.509 361.308, 36.285 358.394, 46.724 376.637 C 57.372 395.245, 53.214 394.729, 85.906 381.500 C 118.919 368.142, 117.377 368.161, 130.501 380.934 C 143.914 393.988, 143.924 392.813, 130.088 427.188 C 117.220 459.160, 116.580 454.515, 135.328 465.250 C 154.095 475.996, 150.848 476.364, 161.645 462.268 L 167.225 454.983 165.118 449.741 C 155.116 424.868, 156.253 394.328, 168.054 370.904 L 170.873 365.308 162.510 357.654 L 154.147 350 129.823 349.983 C 97.613 349.960, 86.960 347.506, 75.137 337.385 C 70.274 333.223, 73.134 331.974, 54.806 346.264 M 436.790 337.366 C 425.494 347.343, 414.168 349.960, 382.177 349.983 L 357.853 350 349.490 357.654 L 341.127 365.308 343.946 370.904 C 355.747 394.328, 356.884 424.868, 346.882 449.741 L 344.775 454.983 350.355 462.268 C 361.152 476.364, 357.903 475.996, 376.682 465.250 C 395.238 454.632, 394.727 458.782, 381.500 426.094 C 368.097 392.971, 368.093 394.126, 381.677 380.861 C 394.690 368.154, 392.905 368.113, 427.188 381.912 C 459.168 394.784, 454.511 395.427, 465.285 376.653 C 475.739 358.437, 476.479 361.284, 457.451 346.501 C 439.253 332.363, 441.386 333.306, 436.790 337.366 M 214.994 368.913 C 193.494 375.638, 191.592 403.581, 212 412.902 C 218.501 415.870, 294.987 415.245, 301.227 412.172 C 318.512 403.659, 318.668 379.922, 301.500 370.658 C 297.295 368.389, 221.553 366.861, 214.994 368.913 M 215.077 384.589 C 211.064 387.965, 210.692 394.423, 214.314 397.826 C 216.610 399.982, 216.949 400, 256.140 400 L 295.651 400 297.826 397.686 C 301.256 394.034, 300.832 387.878, 296.923 384.589 L 293.847 382 256 382 L 218.153 382 215.077 384.589 M 248 434.314 C 228.484 440.499, 228.929 471.931, 248.616 477.778 C 257.717 480.480, 265.482 478.573, 272.028 472.028 C 289.332 454.723, 271.570 426.843, 248 434.314 M 251.364 448.170 C 245.609 450.956, 245.801 461.221, 251.657 463.890 C 261.355 468.308, 269.519 457.365, 262.077 449.923 C 258.998 446.844, 255.338 446.245, 251.364 448.170" stroke="none" fill="#000000" fill-rule="evenodd"/><path d="M 330 242.577 C 330 243.444, 328.685 245.469, 327.077 247.077 L 324.154 250 213.758 250 C 90.323 250, 98.326 249.542, 86.826 257.271 C 55.937 278.033, 65.269 326.261, 101.676 334.017 C 104.891 334.702, 157.371 334.954, 259 334.772 L 411.500 334.500 419.006 330.915 C 452.574 314.883, 452.234 269.108, 418.430 253.277 L 412.500 250.500 383.161 250 L 353.823 249.500 351.411 246.694 C 350.085 245.151, 349 243.239, 349 242.444 C 349 241.287, 347.115 241, 339.500 241 C 331.516 241, 330 241.252, 330 242.577 M 131.500 269.184 C 128.504 270.938, 127.067 273.192, 127.032 276.191 C 127.001 278.804, 126.921 278.840, 124.250 277.454 C 116.410 273.383, 109.245 283.789, 115.770 289.768 L 118.540 292.306 115.770 295.076 C 109.138 301.708, 116.735 311.423, 125.066 306.965 C 126.728 306.075, 127 306.267, 127 308.330 C 127 317.745, 140.842 318.692, 142.585 309.397 C 143.060 306.868, 143.559 306.159, 144.325 306.925 C 145.660 308.260, 150.526 308.324, 152.929 307.038 C 157.611 304.532, 157.567 296.444, 152.858 293.924 L 150.620 292.726 152.796 290.964 C 160.639 284.614, 154.875 274.085, 145.338 277.341 C 143.513 277.964, 143.076 277.622, 142.531 275.143 C 141.391 269.950, 135.566 266.803, 131.500 269.184 M 192.315 269.007 C 189.692 270.064, 188 272.956, 188 276.383 C 188 278.871, 187.962 278.882, 184.487 277.430 C 176.319 274.017, 170.011 283.904, 176.479 289.980 L 178.958 292.309 176.479 294.607 C 169.537 301.041, 177.633 311.478, 186.066 306.965 C 187.781 306.047, 188 306.274, 188 308.965 C 188 313.001, 191.123 316, 195.326 316 C 199.390 316, 203 312.542, 203 308.650 C 203 306.270, 203.242 306.059, 204.934 306.965 C 213.356 311.472, 221.473 300.856, 214.206 294.838 L 211.412 292.524 214.206 290.173 C 221.249 284.247, 214.086 273.316, 205.852 277.424 C 203.123 278.785, 203 278.746, 203 276.505 C 203 272.812, 201.974 271.038, 198.928 269.463 C 195.731 267.810, 195.352 267.784, 192.315 269.007 M 253.357 269.001 C 250.747 270.043, 248 273.781, 248 276.290 C 248 277.763, 247.547 277.981, 245.750 277.369 C 236.948 274.372, 230.174 283.725, 236.770 289.768 L 239.540 292.306 236.770 295.076 C 230.263 301.583, 237.892 311.339, 246.066 306.965 C 247.728 306.075, 248 306.267, 248 308.330 C 248 309.650, 248.933 311.916, 250.073 313.365 C 254.401 318.868, 264 315.397, 264 308.330 C 264 306.267, 264.272 306.075, 265.934 306.965 C 274.174 311.374, 281.728 301.574, 275.156 295.002 L 272.312 292.158 274.666 290.329 C 282.012 284.623, 275.300 274.288, 266.250 277.369 C 264.408 277.996, 264 277.770, 264 276.123 C 264 271.612, 257.579 267.315, 253.357 269.001 M 313.500 269.131 C 310.460 270.830, 309 273.096, 309 276.114 C 309 278.785, 308.935 278.814, 306.148 277.424 C 297.914 273.316, 290.751 284.247, 297.794 290.173 L 300.588 292.524 297.794 294.838 C 290.519 300.863, 298.634 311.477, 307.066 306.965 C 308.769 306.053, 309 306.272, 309 308.791 C 309 314.930, 317.617 318.383, 322 314 C 323.121 312.879, 324 310.667, 324 308.965 C 324 306.274, 324.219 306.047, 325.934 306.965 C 334.367 311.478, 342.463 301.041, 335.521 294.607 L 333.042 292.309 335.521 289.980 C 341.989 283.904, 335.681 274.017, 327.513 277.430 L 324 278.898 324 276.060 C 324 270.644, 317.943 266.647, 313.500 269.131 M 375 268.709 C 372.231 269.728, 370.118 272.185, 369.469 275.143 C 368.924 277.622, 368.487 277.964, 366.662 277.341 C 356.903 274.009, 351.280 284.548, 359.337 291.072 L 361.380 292.726 359.142 293.924 C 354.433 296.444, 354.389 304.532, 359.071 307.038 C 361.474 308.324, 366.340 308.260, 367.675 306.925 C 368.441 306.159, 368.940 306.868, 369.415 309.397 C 371.158 318.692, 385 317.745, 385 308.330 C 385 306.267, 385.272 306.075, 386.934 306.965 C 395.265 311.423, 402.862 301.708, 396.230 295.076 L 393.460 292.306 396.230 289.768 C 402.755 283.789, 395.590 273.383, 387.750 277.454 C 385.079 278.840, 384.999 278.804, 384.968 276.191 C 384.907 270.973, 379.625 267.009, 375 268.709" stroke="none" fill="#d3effd" fill-rule="evenodd"/><path d="" stroke="none" fill="#070707" fill-rule="evenodd"/></svg>